<?xml version="1.0" encoding="UTF-8"?><svg xmlns="http://www.w3.org/2000/svg" viewBox="0 0 106.65 106.69"><defs><style>.cls-1,.cls-2{fill:#fff;}.cls-2{mix-blend-mode:multiply;opacity:.08;}.cls-3{isolation:isolate;}</style></defs><g class="cls-3"><g id="Fondo"><g><path class="cls-1" d="M53.32,3.98C26.06,3.98,3.96,26.08,3.96,53.35s22.1,49.37,49.37,49.37,49.37-22.1,49.37-49.37S80.59,3.98,53.32,3.98Zm23.83,68.63l-4.57,4.57-19.26-19.26-19.26,19.26-4.57-4.57,19.26-19.26-19.26-19.26,4.57-4.57,19.26,19.26,19.26-19.26,4.57,4.57-19.26,19.26,19.26,19.26Z"/><path class="cls-2" d="M53.32,3.98C26.06,3.98,3.96,26.08,3.96,53.35s22.1,49.37,49.37,49.37,49.37-22.1,49.37-49.37S80.59,3.98,53.32,3.98Zm23.83,68.63l-4.57,4.57-19.26-19.26-19.26,19.26-4.57-4.57,19.26-19.26-19.26-19.26,4.57-4.57,19.26,19.26,19.26-19.26,4.57,4.57-19.26,19.26,19.26,19.26Z"/></g></g></g></svg>