<?xml version="1.0" encoding="UTF-8"?><svg id="Fondo" xmlns="http://www.w3.org/2000/svg" viewBox="0 0 98.92 98.01"><defs><style>.cls-1{fill:#fff;}</style></defs><path class="cls-1" d="M49.46,.76C22.82,.76,1.22,22.36,1.22,49s21.6,48.24,48.24,48.24,48.24-21.6,48.24-48.24S76.1,.76,49.46,.76Zm21.27,31.56h-6.06c-5.97,0-7.84,3.71-7.84,7.51v9.02h13.34l-2.13,13.9h-11.21v33.61c-2.45,.38-4.96,.58-7.51,.58s-5.07-.2-7.51-.58V62.76h-12.21v-13.9h12.21v-10.6c0-12.05,7.18-18.71,18.17-18.71,5.26,0,10.77,.94,10.77,.94v11.84Z"/></svg>