<?xml version="1.0" encoding="UTF-8"?><svg id="Fondo" xmlns="http://www.w3.org/2000/svg" viewBox="0 0 98.92 98.01"><defs><style>.cls-1{fill:#fff;}.cls-2{fill:none;stroke:#fff;stroke-miterlimit:10;}</style></defs><circle class="cls-2" cx="49.46" cy="49" r="48.24" transform="translate(-9.94 12.67) rotate(-13.28)"/><g><path class="cls-1" d="M64.25,30.95c-1.83,0-3.31,1.48-3.31,3.31s1.48,3.31,3.31,3.31,3.31-1.48,3.31-3.31-1.48-3.31-3.31-3.31Z"/><path class="cls-1" d="M49.55,35.19c-7.66,0-13.89,6.23-13.89,13.89s6.23,13.89,13.89,13.89,13.89-6.23,13.89-13.89-6.23-13.89-13.89-13.89Zm0,22.78c-4.91,0-8.9-3.99-8.9-8.9s3.99-8.9,8.9-8.9,8.9,3.99,8.9,8.9-3.99,8.9-8.9,8.9Z"/><path class="cls-1" d="M60.57,77.27h-22.51c-9.34,0-16.94-7.6-16.94-16.94v-22.52c0-9.34,7.6-16.94,16.94-16.94h22.51c9.34,0,16.94,7.6,16.94,16.94v22.52c0,9.34-7.6,16.94-16.94,16.94ZM38.06,26.19c-6.41,0-11.63,5.22-11.63,11.63v22.52c0,6.41,5.22,11.63,11.63,11.63h22.51c6.42,0,11.63-5.22,11.63-11.63v-22.52c0-6.41-5.22-11.63-11.63-11.63h-22.51Z"/></g></svg>