<?xml version="1.0" encoding="UTF-8"?><svg id="Fondo" xmlns="http://www.w3.org/2000/svg" viewBox="0 0 98.92 98.01"><defs><style>.cls-1{fill:#fff;}</style></defs><path class="cls-1" d="M49.46,.76C22.82,.76,1.22,22.36,1.22,49s21.6,48.24,48.24,48.24,48.24-21.6,48.24-48.24S76.1,.76,49.46,.76Zm28.05,59.57c0,9.34-7.6,16.94-16.94,16.94h-22.51c-9.34,0-16.94-7.6-16.94-16.94v-22.52c0-9.34,7.6-16.94,16.94-16.94h22.51c9.34,0,16.94,7.6,16.94,16.94v22.52Z"/><path class="cls-1" d="M60.57,26.19h-22.51c-6.42,0-11.63,5.22-11.63,11.63v22.52c0,6.41,5.22,11.63,11.63,11.63h22.51c6.42,0,11.63-5.22,11.63-11.63v-22.52c0-6.41-5.22-11.63-11.63-11.63Zm-11.02,36.78c-7.66,0-13.89-6.23-13.89-13.89s6.23-13.89,13.89-13.89,13.89,6.23,13.89,13.89-6.23,13.89-13.89,13.89Zm14.7-25.4c-1.83,0-3.31-1.48-3.31-3.31s1.48-3.31,3.31-3.31,3.31,1.48,3.31,3.31-1.48,3.31-3.31,3.31Z"/><path class="cls-1" d="M49.55,40.18c-4.91,0-8.9,3.99-8.9,8.9s3.99,8.9,8.9,8.9,8.9-3.99,8.9-8.9-3.99-8.9-8.9-8.9Z"/></svg>