<?xml version="1.0" encoding="UTF-8"?><svg id="Capa_2" xmlns="http://www.w3.org/2000/svg" xmlns:xlink="http://www.w3.org/1999/xlink" viewBox="0 0 454.81 249.65"><defs><style>.cls-1{fill:none;}.cls-2{clip-path:url(#clippath);}.cls-3{fill:#fff;}.cls-4{fill:#b8b8b7;}.cls-5{fill:#cb2e26;}.cls-6{fill:#1d1d1b;}.cls-7{fill:#2f277e;}.cls-8{fill:#7a777b;}</style><clipPath id="clippath"><rect class="cls-1" x="-2170.12" y="730.53" width="1920" height="1080"/></clipPath></defs><g class="cls-2"><image width="7360" height="4912" transform="translate(-2257.28 26.75) scale(.38)" xlink:href="../Links/riccardo-pelati-_-Cg7vTw3bs-unsplash.jpg"/></g><g><path class="cls-8" d="M261.73,222.5c1.41-.15,2.33-.4,2.75-.75,.41-.35,.61-1.25,.61-2.7v-17.1c0-1.37-.2-2.26-.6-2.67-.42-.42-1.34-.67-2.76-.78v-.72h20.4l.15,5.51h-.98c-.33-1.7-.82-2.8-1.46-3.29-.65-.5-2.1-.75-4.35-.75h-5.25c-.55,0-.9,.09-1.04,.27-.14,.19-.19,.52-.19,1.02v8.58h5.93c1.63,0,2.69-.24,3.14-.72,.45-.49,.8-1.48,1.09-2.96h.9v8.88h-.9c-.29-1.48-.65-2.48-1.11-2.96-.47-.48-1.49-.72-3.12-.72h-5.93v9.52c0,.77,.24,1.21,.73,1.35,.47,.14,1.91,.21,4.32,.21,2.62,0,4.54-.28,5.77-.85,1.24-.57,2.35-1.95,3.34-4.14h1.08l-1.75,6.48h-20.77v-.7Z"/><path class="cls-8" d="M285.19,222.5c1.43-.15,2.33-.4,2.76-.75,.42-.35,.63-1.25,.63-2.7v-17.1c0-1.37-.21-2.26-.63-2.67-.41-.42-1.33-.67-2.76-.78v-.72h10.84v.72c-1.4,.07-2.35,.31-2.83,.7-.47,.38-.72,1.21-.72,2.49v18.47c0,.43,.08,.76,.22,1.01,.14,.25,.45,.4,.95,.45,.28,.04,.59,.07,.91,.08,.32,.02,.91,.03,1.79,.03,3.42,0,5.73-.28,6.92-.84,1.21-.57,2.37-2.01,3.49-4.32h.98l-1.87,6.65h-20.69v-.7Z"/><path class="cls-8" d="M316.88,222.5c1.41-.15,2.33-.4,2.75-.75,.41-.35,.63-1.25,.63-2.7v-17.1c0-1.37-.2-2.26-.63-2.67-.41-.42-1.33-.67-2.75-.78v-.72h10.84v.72c-1.4,.07-2.35,.31-2.84,.7-.47,.38-.71,1.21-.71,2.49v18.47c0,.43,.07,.76,.21,1.01,.15,.25,.46,.4,.95,.45,.29,.04,.59,.07,.91,.08,.33,.02,.91,.03,1.8,.03,3.41,0,5.71-.28,6.92-.84,1.21-.57,2.37-2.01,3.51-4.32h.96l-1.88,6.65h-20.67v-.7Z"/><path class="cls-8" d="M340.54,222.5c1.57-.11,2.58-.34,3.03-.7,.47-.35,.71-1.27,.71-2.75v-17.1c0-1.41-.24-2.32-.71-2.74-.46-.4-1.46-.65-3.03-.71v-.72h11.38v.72c-1.57,.07-2.59,.31-3.05,.71-.46,.41-.69,1.32-.69,2.74v17.1c0,1.48,.23,2.4,.69,2.75,.46,.36,1.48,.59,3.05,.7v.7h-11.38v-.7Zm11.32-31.05c-.2,.23-.49,.47-.88,.73l-5.93,3.73h-1.54l5.65-5.68c.19-.2,.45-.4,.75-.61,.29-.22,.61-.33,.95-.33s.63,.12,.89,.35c.28,.24,.41,.53,.41,.91s-.09,.67-.3,.91Z"/><path class="cls-8" d="M353.33,222.5c1.42-.15,2.32-.4,2.76-.75,.42-.35,.63-1.25,.63-2.7v-17.1c0-1.39-.21-2.3-.63-2.7-.4-.4-1.33-.65-2.76-.75v-.72h10.37c3.49,0,6.44,.57,8.85,1.73,4.36,2.06,6.54,5.75,6.54,11.06,0,1.93-.39,3.74-1.17,5.47-.78,1.72-1.96,3.18-3.54,4.36-1.02,.76-2.04,1.32-3.12,1.72-1.95,.73-4.37,1.07-7.23,1.07h-10.69v-.7Zm7.75-1.02c.3,.2,.94,.3,1.9,.3,3.01,0,5.48-.59,7.41-1.78,2.96-1.83,4.47-4.95,4.47-9.38,0-3.94-1.22-6.91-3.68-8.9-2.1-1.7-4.88-2.55-8.35-2.55-.88,0-1.46,.09-1.76,.28-.31,.18-.46,.6-.46,1.23v19.56c0,.63,.15,1.03,.46,1.24Z"/><path class="cls-8" d="M380.91,222.5c1.4-.15,2.33-.4,2.74-.75,.43-.35,.63-1.25,.63-2.7v-17.1c0-1.37-.2-2.26-.6-2.67-.42-.42-1.35-.67-2.76-.78v-.72h20.42l.13,5.51h-.98c-.33-1.7-.82-2.8-1.47-3.29-.64-.5-2.09-.75-4.34-.75h-5.23c-.58,0-.91,.09-1.05,.27-.13,.19-.2,.52-.2,1.02v8.58h5.93c1.64,0,2.68-.24,3.12-.72,.47-.49,.81-1.48,1.1-2.96h.89v8.88h-.89c-.29-1.48-.66-2.48-1.11-2.96-.45-.48-1.49-.72-3.11-.72h-5.93v9.52c0,.77,.23,1.21,.71,1.35,.5,.14,1.94,.21,4.34,.21,2.6,0,4.51-.28,5.76-.85,1.25-.57,2.36-1.95,3.35-4.14h1.06l-1.73,6.48h-20.77v-.7Z"/><path class="cls-8" d="M404.38,222.5c1.46-.14,2.39-.43,2.76-.86,.35-.43,.53-1.45,.53-3.04v-16.65c0-1.36-.2-2.23-.6-2.66-.4-.41-1.31-.68-2.7-.79v-.72h10.65c2.2,0,4.05,.28,5.52,.84,2.82,1.06,4.22,3.02,4.22,5.88,0,1.9-.63,3.37-1.88,4.39-1.24,1.02-2.94,1.71-5.07,2.03l7.92,9.76c.5,.59,.98,1.03,1.47,1.3,.47,.27,1.11,.45,1.87,.52v.7h-6.18l-9.62-11.83-1.7,.08v7.58c0,1.42,.22,2.33,.66,2.69,.43,.4,1.37,.65,2.82,.77v.7h-10.68v-.7Zm13.13-13.32c2.04-.83,3.06-2.41,3.06-4.72s-.91-3.74-2.73-4.54c-.98-.45-2.27-.66-3.88-.66-1.09,0-1.76,.08-2,.24-.24,.15-.39,.52-.39,1.09v9.46c2.78-.09,4.75-.39,5.94-.87Z"/><rect class="cls-5" x="20.14" y="184.96" width="408.53" height="5.2"/><path class="cls-3" d="M77.43,87.09l-2.18,.51c-2.91-12.63-11.22-23.71-19.53-23.71-4.67,0-10.6,4.68-10.6,13.67s6.13,11.08,9.98,13.16l12.14,6.07c9.46,4.83,17.25,12.11,17.25,30.8,0,13.85-4.15,24.23-11.01,31.69-6.54,7.26-15.58,10.21-23.37,10.21-5.29,0-9.34-1.04-14.53-2.61-1.98-.68-4.89-1.72-6.87-1.72-2.38,0-4.05,1.55-5.6,4.14l-2.29-48.29,2.29-.52c1.97,20.08,11.84,35.13,24.2,35.13,6.44,0,14.33-4.32,14.33-17.13,0-9.51-5.5-12.12-9.86-14.36l-10.5-5.71c-3.95-2.08-8.83-5.02-12.05-9.34-3.73-5.02-6.13-12.99-6.13-20.95,0-11.24,4.05-22.33,9.56-28.73,5.72-6.58,12.67-9.35,19.53-9.35,3.94,0,6.84,1.04,10.7,2.25,1.65,.52,3.83,1.38,5.39,1.38,2.08,0,4.98-1.21,6.44-4.15l2.7,37.56Z"/><path class="cls-3" d="M77.43,87.09l-.1-.44-2.18,.51,.1,.44,.44-.1c-1.47-6.38-4.3-12.36-7.83-16.77-3.53-4.4-7.78-7.28-12.14-7.29-2.49,0-5.24,1.24-7.39,3.61-2.14,2.38-3.67,5.91-3.66,10.51,0,4.44,1.59,7.36,3.69,9.37,2.09,2.02,4.63,3.16,6.53,4.19h0l12.14,6.08c4.69,2.4,8.93,5.37,12,10.05,3.07,4.67,5,11.07,5,20.35,0,13.76-4.12,24.01-10.89,31.38h0c-6.44,7.16-15.36,10.07-23.04,10.07-5.23,0-9.22-1.03-14.4-2.59l-.13,.43,.15-.43c-1.99-.68-4.9-1.73-7.02-1.74-1.29,0-2.42,.43-3.39,1.19-.98,.76-1.81,1.85-2.6,3.17l.39,.23,.45-.02-2.27-47.91,1.92-.43-.1-.44-.45,.04c.99,10.1,3.97,18.95,8.28,25.3,4.31,6.35,9.99,10.23,16.37,10.23,3.32,0,7.02-1.11,9.89-3.89,2.88-2.78,4.89-7.2,4.89-13.7,0-4.84-1.42-8.01-3.41-10.21-1.99-2.2-4.52-3.43-6.69-4.56l-.21,.4,.22-.4-10.51-5.72h0c-3.93-2.06-8.75-4.98-11.89-9.21-3.66-4.91-6.04-12.81-6.04-20.68,0-11.13,4.03-22.15,9.45-28.44,5.64-6.49,12.45-9.19,19.19-9.19,3.86,0,6.69,1.01,10.56,2.23,1.64,.51,3.81,1.39,5.53,1.4,2.24,0,5.29-1.28,6.85-4.4l-.4-.2-.45,.03,2.7,37.56,.45-.03-.1-.44,.1,.44,.45-.03-2.82-39.21-.74,1.48c-1.36,2.77-4.12,3.9-6.04,3.9-1.42,0-3.59-.83-5.26-1.36-3.84-1.21-6.81-2.27-10.83-2.27-6.98,0-14.08,2.83-19.87,9.51-5.59,6.52-9.66,17.67-9.67,29.03,0,8.05,2.41,16.09,6.22,21.22,3.3,4.42,8.23,7.38,12.2,9.47l.21-.4-.22,.4,10.5,5.71h0c2.19,1.13,4.59,2.32,6.44,4.36,1.84,2.04,3.17,4.93,3.18,9.6,0,6.32-1.93,10.46-4.61,13.05-2.68,2.59-6.15,3.63-9.27,3.63-5.99,0-11.41-3.64-15.62-9.84-4.2-6.19-7.15-14.91-8.13-24.88l-.05-.51-3.16,.71,2.38,50.16,.77-1.29c.76-1.27,1.54-2.26,2.38-2.92,.85-.66,1.74-1,2.83-1,1.84,0,4.75,1,6.72,1.69h.02c5.2,1.57,9.31,2.63,14.66,2.63,7.9,0,17.06-2.99,23.71-10.36l-.34-.3,.33,.31c6.94-7.54,11.13-18.05,11.13-31.99,0-9.41-1.96-16-5.15-20.85-3.19-4.85-7.58-7.92-12.34-10.36l-12.14-6.07-.2,.4,.21-.4c-1.95-1.05-4.39-2.16-6.34-4.04-1.94-1.88-3.4-4.5-3.41-8.72,0-4.39,1.45-7.69,3.43-9.9,1.99-2.21,4.53-3.32,6.72-3.31,3.94,0,8,2.66,11.44,6.95,3.43,4.28,6.21,10.16,7.65,16.41l.1,.44,2.99-.7-.03-.38-.45,.03Z"/><path class="cls-3" d="M92.44,147.76c-.52,2.62-1.43,7.36-1.43,10.09,0,3.86,1.43,5.11,3.44,5.49v3.11h-16.45v-3.11c4.03-1.5,5.6-8.47,7.03-14.21l11.74-51.73c.37-1.49,1.27-4.98,1.27-6.72,0-1.88-.6-2.86-1.64-3.12v-3.12h21.83v3.12c-1.12,.26-1.72,.99-1.72,3.12,0,1.62,6.5,33.15,11.66,58.57,1.12,5.24,2.25,13.34,6.2,14.09v3.11h-25.79v-3.11c2.4-.24,4.12-2.99,4.12-7.23,0-6.11-3.37-12.34-6.29-15.58-3.44-3.99-7.11-5.86-11.3-5.49l-2.68,12.71Zm8.56-47.3l-4.71,23.44c3.74-.13,7.41,2.62,10.39,6.11l-5.68-29.55Z"/><path class="cls-3" d="M92.44,147.76l-.44-.09c-.52,2.63-1.43,7.36-1.43,10.18,0,1.98,.36,3.36,1.05,4.31,.69,.96,1.69,1.42,2.76,1.62l.08-.44h-.45v2.66h-15.54v-2.66h-.45l.16,.42c2.22-.84,3.65-3.08,4.75-5.77,1.09-2.69,1.84-5.89,2.56-8.75h0l11.74-51.73-.44-.1,.44,.11c.37-1.5,1.28-4.97,1.28-6.83,0-.98-.15-1.77-.48-2.38-.33-.61-.87-1.02-1.5-1.17l-.11,.44h.45v-2.67h20.93v2.67h.45l-.1-.44c-.63,.14-1.21,.46-1.57,1.06-.35,.6-.5,1.39-.5,2.49,0,.3,.11,.93,.3,2.02,1.32,7.48,6.86,34.39,11.38,56.64,.56,2.61,1.12,5.96,2.05,8.78,.47,1.41,1.02,2.7,1.74,3.7,.72,1,1.62,1.75,2.76,1.96l.08-.44h-.45v2.66h-24.89v-2.66h-.45l.05,.45c1.36-.14,2.52-1,3.3-2.34,.78-1.34,1.22-3.16,1.22-5.34-.01-6.27-3.42-12.55-6.4-15.88l-.34,.3,.34-.3c-3.2-3.72-6.68-5.69-10.6-5.69-.36,0-.72,.02-1.08,.05l-.33,.03-2.75,13.04,.44,.09,.44,.09,2.68-12.71-.44-.09,.04,.45c.34-.03,.67-.05,1-.05,3.6,0,6.81,1.78,9.92,5.38h0c2.85,3.17,6.18,9.35,6.17,15.28,0,2.06-.42,3.73-1.1,4.89-.68,1.16-1.58,1.79-2.61,1.89l-.41,.04v3.97h26.69v-3.94l-.37-.07c-.84-.16-1.55-.71-2.19-1.6-1.93-2.67-2.81-8.2-3.65-12.14-2.58-12.71-5.5-26.95-7.77-38.21-1.13-5.63-2.11-10.52-2.8-14.09-.34-1.79-.62-3.25-.81-4.31-.19-1.05-.29-1.75-.28-1.86,0-1.02,.15-1.66,.37-2.03,.22-.36,.5-.53,.99-.65l.35-.08v-3.93h-22.74v3.93l.34,.08c.41,.11,.69,.31,.92,.73,.23,.41,.37,1.06,.37,1.95,0,1.62-.88,5.13-1.26,6.61h0l-11.74,51.73,.44,.1-.44-.11c-.71,2.87-1.46,6.03-2.52,8.63-1.05,2.61-2.42,4.6-4.23,5.26l-.29,.11v3.88h17.35v-3.94l-.37-.07c-.94-.18-1.67-.53-2.2-1.26-.53-.73-.88-1.9-.88-3.78,0-2.66,.89-7.4,1.42-10.01l-.44-.09Zm8.56-47.3l-.44-.09-4.83,24,.57-.02h.23c3.42-.02,6.92,2.57,9.8,5.95l1.11,1.3-6.01-31.22h-.89l.44,.09-.44,.09,5.68,29.55,.44-.09,.34-.29c-2.96-3.45-6.6-6.26-10.49-6.27h-.27l.02,.46,.44,.09,4.71-23.44-.44-.09-.44,.09,.44-.09Z"/><path class="cls-3" d="M175.12,100.21c0-8.73-1.49-12.59-4.56-12.47v-3.11h15.02v3.11c-3.06-.12-4.11,3.74-4.11,12.47v50.72c0,8.72,1.05,12.59,4.11,12.46v3.12h-15.02v-2.98c2.4-.63,3.81-2.88,3.81-7.11,0-5.98-2.17-10.1-4.42-14.33l-22.2-42.63v51.6c0,8.73,.97,12.6,4.03,12.47v3.11h-14.5v-3.11c3.06,.12,4.12-3.75,4.12-12.47v-50.84c0-8.73-1.05-12.59-4.12-12.47v-3.11h28.56v3.11c-1.04,.5-1.94,1.38-1.94,3.36,0,2.62,2.03,6.12,3,7.99l8.22,16.82v-15.7Z"/><path class="cls-3" d="M175.12,100.21h.45c0-4.33-.36-7.48-1.12-9.62-.38-1.07-.87-1.89-1.51-2.46-.63-.57-1.41-.86-2.25-.86h-.16l.02,.46h.45v-2.66h14.12v2.66h.45l.02-.45h-.16c-.84,0-1.59,.29-2.18,.86-.88,.87-1.41,2.27-1.75,4.26-.34,1.98-.48,4.56-.48,7.8v50.72c0,4.31,.25,7.45,.89,9.58,.32,1.07,.75,1.89,1.34,2.47,.58,.58,1.34,.88,2.18,.87h.16v-.45h-.46v2.66h-14.12v-2.53h-.45l.11,.44c1.31-.34,2.38-1.16,3.08-2.42,.71-1.27,1.06-2.96,1.07-5.12,0-6.1-2.22-10.32-4.47-14.55l-22.2-42.63-.85,.21v51.6c0,4.32,.23,7.46,.86,9.59,.31,1.07,.73,1.89,1.31,2.47,.58,.58,1.33,.88,2.17,.87h.15v-.45h-.46v2.66h-13.6v-2.66h-.45l-.02,.45h.15c.84,0,1.6-.29,2.18-.87,.88-.87,1.41-2.28,1.76-4.26,.34-1.98,.49-4.57,.49-7.8v-50.84c0-4.32-.25-7.46-.9-9.6-.33-1.06-.76-1.89-1.34-2.46-.59-.58-1.35-.87-2.18-.87h-.16l.02,.46h.45v-2.66h27.66v2.66h.45l-.2-.41c-.57,.27-1.13,.67-1.54,1.28-.41,.61-.66,1.43-.66,2.49,.02,2.83,2.09,6.33,3.05,8.2l.4-.21-.41,.2,8.22,16.82,.86-.2v-15.7h-.9v13.74l-7.37-15.07h0c-.99-1.87-2.97-5.37-2.95-7.78,0-.92,.21-1.54,.5-1.98,.3-.45,.71-.74,1.18-.97l.26-.12v-3.85h-29.46v4.04l.48-.02h.11c.64,0,1.12,.19,1.55,.61,.65,.63,1.18,1.86,1.5,3.76,.33,1.9,.47,4.44,.47,7.65v50.84c0,4.28-.26,7.37-.86,9.33-.3,.98-.68,1.66-1.11,2.08-.44,.42-.91,.61-1.55,.61h-.12l-.47-.02v4.03h15.41v-4.03h-.59c-.64,0-1.11-.18-1.53-.6-.64-.62-1.15-1.86-1.46-3.76-.31-1.9-.45-4.44-.45-7.65v-49.75l21.35,40.99c2.25,4.24,4.36,8.26,4.36,14.13,0,2.07-.35,3.61-.95,4.68-.6,1.07-1.44,1.7-2.53,1.99l-.34,.09v3.79h15.93v-4.03h-.46l-.14,.02c-.64,0-1.11-.19-1.55-.61-.65-.63-1.17-1.87-1.49-3.76-.33-1.9-.47-4.43-.47-7.64v-50.72c0-4.28,.26-7.38,.86-9.33,.3-.98,.68-1.66,1.11-2.08,.44-.42,.91-.61,1.55-.61h.12l.47,.02v-4.04h-15.93v4.04l.48-.02h.12c.65,0,1.16,.2,1.64,.62,.72,.64,1.32,1.87,1.72,3.77,.4,1.89,.61,4.43,.61,7.63h.45Z"/><path class="cls-3" d="M191.99,99.9c0-8.72-1.05-12.58-4.11-12.46v-3.12h23.78c7.69,.12,14.65,1.37,20.86,9.59,6.21,8.11,9.65,20.94,9.65,34.03,0,10.72-2.25,21.57-7.18,28.92-5.31,7.85-12.56,9.47-19.44,9.47h-27.67v-3.12c3.07,.12,4.11-3.74,4.11-12.46v-50.86Zm15.76,44.07c0,7.11-.23,13.71,5.31,13.71,9.57,0,13.68-16.08,13.68-29.92s-4.41-35.65-14.73-35.65c-4.26,0-4.26,5.98-4.26,11.22v40.63Z"/><path class="cls-3" d="M191.99,99.9h.45c0-4.31-.25-7.46-.9-9.59-.33-1.06-.76-1.89-1.35-2.46-.59-.58-1.35-.87-2.18-.87h-.16l.02,.46h.45v-2.66h23.33v0c7.66,.14,14.37,1.32,20.5,9.41,6.13,7.99,9.56,20.75,9.56,33.75,0,10.66-2.24,21.44-7.1,28.67-5.21,7.7-12.25,9.26-19.07,9.27h-27.22v-2.67h-.45l-.02,.45h.16c.84,0,1.6-.29,2.18-.86,.88-.87,1.41-2.27,1.76-4.25,.34-1.98,.48-4.56,.48-7.8v-50.86h-.9v50.86c0,4.28-.26,7.37-.86,9.32-.3,.98-.68,1.66-1.11,2.08-.44,.42-.91,.61-1.55,.61h-.12l-.47-.02v4.04h28.12c6.94,.01,14.42-1.67,19.82-9.67,5.01-7.47,7.25-18.39,7.26-29.18,0-13.16-3.45-26.07-9.74-34.3-6.28-8.35-13.49-9.66-21.21-9.77h-24.24v4.04l.48-.02h.12c.64,0,1.12,.19,1.55,.61,.65,.62,1.17,1.86,1.5,3.76,.33,1.9,.47,4.43,.47,7.64h.45Zm15.76,44.07h-.45c0,.54,0,1.08,0,1.62,0,3.24,.04,6.28,.76,8.6,.36,1.16,.9,2.15,1.72,2.85,.82,.71,1.92,1.09,3.28,1.09,2.52,0,4.7-1.07,6.49-2.86,5.36-5.37,7.62-17.06,7.64-27.51,0-7.21-1.1-16.16-3.52-23.34-1.21-3.59-2.74-6.75-4.66-9.04-1.91-2.29-4.26-3.72-7-3.72-1.17,0-2.12,.43-2.79,1.16-1.01,1.09-1.46,2.75-1.69,4.6-.23,1.86-.23,3.94-.23,5.91v40.63h.9v-40.63c0-2.62,0-5.4,.52-7.47,.25-1.03,.63-1.87,1.16-2.43,.52-.56,1.17-.87,2.13-.87,2.42,0,4.49,1.23,6.31,3.39,5.46,6.47,7.98,21.12,7.97,31.8,0,6.87-1.03,14.31-3.22,19.98-1.1,2.84-2.48,5.23-4.15,6.88-1.67,1.66-3.59,2.59-5.85,2.6-1.2,0-2.04-.32-2.69-.87-.97-.82-1.54-2.28-1.84-4.17-.3-1.89-.33-4.18-.33-6.59,0-.53,0-1.08,0-1.62h-.45Z"/><path class="cls-3" d="M264.17,166.49h-23.55v-3.12c3.06,.13,4.1-3.73,4.1-12.46v-50.85c0-8.72-1.04-12.59-4.1-12.47v-3.11h23.55v3.11c-3.07-.12-4.12,3.74-4.12,12.47v50.85c0,8.72,1.05,12.59,4.12,12.46v3.12Z"/><path class="cls-3" d="M264.17,166.49v-.45h-23.1v-2.67h-.45l-.02,.45h.16c.84,0,1.59-.29,2.18-.87,.88-.87,1.41-2.27,1.75-4.25,.34-1.98,.48-4.56,.48-7.79v-50.85c0-4.31-.25-7.46-.89-9.59-.33-1.06-.75-1.89-1.34-2.46-.58-.58-1.34-.87-2.18-.87h-.16l.02,.46h.45v-2.66h22.65v2.66h.45l.02-.45h-.16c-.84,0-1.6,.29-2.19,.87-.88,.87-1.41,2.28-1.76,4.26-.34,1.98-.48,4.56-.48,7.8v50.85c0,4.31,.25,7.45,.9,9.58,.33,1.06,.76,1.89,1.34,2.46,.59,.58,1.35,.87,2.19,.87h.16v-.45h-.46v3.12h.45v0h.45v-3.59h-.6c-.64,.01-1.12-.18-1.55-.6-.65-.63-1.17-1.86-1.5-3.76-.33-1.9-.47-4.43-.47-7.64v-50.85c0-4.28,.26-7.37,.86-9.32,.3-.98,.68-1.66,1.11-2.08,.44-.42,.91-.61,1.56-.61h.12l.47,.02v-4.03h-24.46v4.04l.48-.02h.12c.64,0,1.11,.19,1.55,.61,.65,.63,1.17,1.86,1.49,3.76,.33,1.9,.47,4.44,.47,7.64v50.85c0,4.27-.26,7.36-.85,9.32-.3,.98-.68,1.66-1.11,2.08-.43,.42-.91,.61-1.55,.61h-.13l-.47-.02v4.04h24.46v-.45h-.45Z"/><path class="cls-3" d="M265.97,166.49v-3.12c3.07,.13,4.12-3.73,4.12-12.46v-50.85c0-8.72-1.05-12.59-4.12-12.47v-3.11h33.95c1.86,.13,4.86,.49,6.28-2l3.81,28.67-1.64,.87c-2.17-12.09-8.59-19.31-16.07-19.31s-6.88,4.61-6.88,14.58v3.99h2.38c4.94,0,9.88,.88,9.81-10.09l1.5-.38,3.29,31.66-1.5,.24c-.82-3.48-2.02-6.72-3.67-9.22-2.92-4.48-6.06-3.99-9.8-3.99h-2.01v24.05c-.6,12.22,2.25,14.96,7.25,14.71,9.58,0,15.71-9.59,19.67-23.18l1.58,1-6.36,32.4c-1.2-2.12-2.84-1.99-4.49-1.99h-37.09Z"/><path class="cls-3" d="M265.97,166.49h.45v-3.12h-.45l-.02,.45h.16c.84,0,1.59-.29,2.18-.87,.88-.87,1.41-2.27,1.76-4.25,.34-1.98,.48-4.56,.48-7.79v-50.85c0-4.31-.25-7.46-.9-9.59-.33-1.06-.76-1.89-1.34-2.46-.59-.58-1.35-.87-2.18-.87h-.16l.02,.46h.45v-2.66h33.5v-.45l-.03,.45c.54,.04,1.19,.09,1.89,.09,.84,0,1.75-.08,2.61-.42,.86-.33,1.65-.93,2.21-1.9l-.39-.22-.45,.06,3.77,28.35-1.36,.72,.21,.4,.44-.08c-1.1-6.1-3.27-11-6.14-14.4-2.87-3.4-6.48-5.29-10.37-5.28-1.67,0-2.99,.23-4.03,.74-1.57,.76-2.43,2.17-2.84,4.02-.42,1.86-.47,4.23-.47,7.18,0,.97,0,2,0,3.09v4.44h2.83c.67,0,1.35,.02,2.03,.02,2.08,0,4.17-.15,5.75-1.59,1.57-1.46,2.48-4.07,2.48-8.74v-.23h-.45l.11,.44,.99-.25,3.19,30.71-1.08,.17,.07,.45,.44-.1c-.83-3.52-2.04-6.8-3.73-9.37-1.23-1.89-2.54-2.97-3.92-3.55-1.39-.58-2.81-.66-4.27-.66-.65,0-1.31,.02-1.98,.02h-2.46v24.5h.45l-.45-.02c-.05,1.09-.08,2.11-.08,3.06,0,4.65,.63,7.65,1.86,9.55,1.24,1.91,3.14,2.6,5.32,2.59,.2,0,.41,0,.62-.02l-.02-.45v.45c4.95,0,9.02-2.5,12.3-6.67,3.28-4.17,5.82-10.01,7.81-16.84l-.43-.13-.24,.38,1.32,.84-6.3,32.1,.44,.09,.39-.22c-.57-1.02-1.29-1.61-2.06-1.91-.77-.3-1.55-.32-2.29-.32h-37.63v.45h0v.45h37.63c.72,0,1.38,.03,1.96,.25,.57,.23,1.1,.63,1.6,1.51l.6,1.06,6.65-33.91-2.34-1.49-.17,.58c-1.97,6.76-4.48,12.51-7.65,16.53-3.18,4.02-6.96,6.32-11.58,6.32h-.02c-.2,0-.39,.01-.58,.01-2.02-.01-3.49-.56-4.56-2.18-1.08-1.64-1.72-4.48-1.72-9.05,0-.93,.03-1.93,.08-3.01h0v-23.62h1.56c.69,0,1.34-.02,1.98-.02,1.43,0,2.72,.09,3.93,.59,1.2,.5,2.36,1.43,3.52,3.21,1.61,2.43,2.79,5.63,3.6,9.08l.1,.41,1.92-.31,.42-.07-3.39-32.6-2,.5-.34,.09v.58c0,4.57-.91,6.9-2.19,8.07-1.27,1.18-3.08,1.36-5.14,1.35-.66,0-1.34-.02-2.03-.02h-1.93v-3.54c0-1.1,0-2.13,0-3.09,0-3.91,.11-6.75,.95-8.49,.42-.87,.99-1.48,1.85-1.9,.86-.42,2.04-.65,3.63-.65,3.59,0,6.93,1.73,9.68,4.97,2.75,3.24,4.87,7.99,5.94,13.98l.11,.61,2.47-1.3-4.03-30.3-.66,1.16c-.45,.79-1.05,1.23-1.75,1.51-.7,.27-1.5,.36-2.28,.36-.65,0-1.28-.06-1.83-.09h-34.43v4.04l.48-.02h.12c.64,0,1.12,.19,1.55,.61,.65,.63,1.17,1.86,1.5,3.76,.33,1.9,.47,4.44,.47,7.64v50.85c0,4.27-.26,7.36-.86,9.32-.3,.98-.68,1.66-1.11,2.08-.44,.42-.91,.61-1.55,.61h-.13l-.47-.02v4.04h.45v-.45Z"/><path class="cls-3" d="M366.48,148.91c0,2.74-.07,8.6,.67,10.97,.6,2,1.88,2.75,3.07,3.48v3.12h-24.08c-7.71,0-15.63-1.12-21.98-9.23-6.43-8.22-10.24-21.93-10.24-35.26,0-26.93,12.56-39.51,27.51-39.51l11.66,1.87c1.13,.37,2.25,.75,3.37,.75,1.65,0,3.13-1.25,4.11-3.5l2.33,29.18-1.58,.37c-2.69-11.09-8.9-19.32-16.22-19.32-10.7,0-14.74,15.96-14.74,31.42s4.71,35.01,15.33,35.01c1.95,0,4.26-1.11,5.24-4.11,.9-2.61,.82-6.6,.82-9.6v-11.47c0-6.1,.37-12.71-4.56-13.09v-3.11h24.01v3.11c-5.31,.51-4.71,7.86-4.71,14.47v14.45Z"/><path class="cls-3" d="M366.48,148.91h-.45c0,.44,0,.97,0,1.55,0,3.02,.04,7.43,.69,9.56,.64,2.15,2.09,3.01,3.26,3.73l.24-.38h-.45v2.67h-23.62c-7.68-.01-15.38-1.1-21.63-9.06-6.34-8.1-10.15-21.74-10.15-34.99,0-13.4,3.12-23.17,8.05-29.58,4.93-6.41,11.66-9.48,19.01-9.48v-.45l-.07,.45,11.66,1.88,.07-.45-.14,.43c1.13,.37,2.29,.76,3.51,.77,1.9,0,3.52-1.44,4.53-3.77l-.41-.18-.45,.04,2.3,28.79-1.2,.28,.1,.44,.44-.11c-1.36-5.6-3.6-10.48-6.46-14-2.85-3.51-6.36-5.67-10.2-5.67-2.79,0-5.17,1.05-7.12,2.85-5.83,5.42-8.05,17.36-8.07,29.02,0,7.52,1.18,16.3,3.71,23.26,1.27,3.48,2.87,6.5,4.86,8.68,1.99,2.18,4.41,3.52,7.21,3.52,2.11,.01,4.64-1.24,5.66-4.43l-.43-.14,.43,.15c.8-2.34,.84-5.58,.84-8.35,0-.48,0-.95,0-1.39v-11.47c0-.8,0-1.61,0-2.42,0-2.67-.06-5.28-.7-7.34-.32-1.03-.79-1.93-1.49-2.6-.7-.67-1.64-1.1-2.8-1.18l-.03,.45h.45v-2.66h23.1v2.66h.45l-.04-.45c-2.36,.21-3.73,1.77-4.38,3.83-.67,2.07-.76,4.69-.76,7.41,0,1.22,.02,2.46,.02,3.67v14.45h.9v-14.45c0-1.22-.02-2.46-.02-3.67,0-2.69,.11-5.25,.72-7.13,.64-1.88,1.63-3.01,3.61-3.21l.41-.04v-3.97h-24.91v3.98l.42,.03c.99,.08,1.69,.41,2.24,.94,.83,.79,1.33,2.1,1.6,3.74,.27,1.63,.31,3.57,.31,5.55,0,.8,0,1.61,0,2.42v11.47c0,.44,0,.91,0,1.39,0,2.75-.07,5.95-.8,8.06h0c-.92,2.82-3.02,3.8-4.81,3.81-2.51,0-4.66-1.17-6.55-3.22-5.66-6.15-8.35-20.2-8.34-31.33,0-7.69,1.01-15.51,3.32-21.34,1.16-2.92,2.64-5.34,4.45-7.01,1.82-1.67,3.95-2.61,6.51-2.62,3.48,0,6.75,1.96,9.5,5.34,2.75,3.37,4.95,8.15,6.28,13.64l.11,.44,2.02-.47,.38-.09-2.36-29.56-.87-.14c-.95,2.16-2.3,3.23-3.7,3.23-1.02,0-2.1-.35-3.23-.72h-.04l-11.72-1.9h-.04c-7.61,0-14.64,3.22-19.72,9.84-5.09,6.62-8.24,16.6-8.24,30.13,0,13.42,3.82,27.19,10.34,35.54,6.46,8.25,14.6,9.41,22.34,9.4h24.53v-3.83l-.21-.13c-1.21-.75-2.31-1.38-2.87-3.23-.59-1.85-.66-6.31-.65-9.29,0-.58,0-1.1,0-1.55h-.45Z"/><path class="cls-3" d="M381.11,157.54c-5.39-8.22-7.85-20.32-7.85-32.28,0-26.79,12.18-42.75,27.68-42.75,6.72,0,14.2,2.86,19.29,10.72,5.44,8.35,7.85,20.81,7.85,32.9,0,11.22-2.4,23.06-7.4,30.79-5.08,7.85-12.94,11.6-19.74,11.6s-14.66-3.13-19.83-10.97Zm28.4-11.09c1.19-4.98,1.5-11.08,1.5-16.45,0-7.73-.46-16.08-2.1-23.31-1.65-6.85-5.15-14.2-10.02-14.2-3.89,0-6.57,5.11-8.08,10.59-1.34,5.11-1.72,11.47-1.72,16.95,0,7.73,.6,16.2,2.31,23.32,1.66,6.85,5.02,13.96,9.8,13.96,4.05,0,6.96-4.86,8.3-10.85Z"/><path class="cls-3" d="M381.11,157.54l.38-.25c-5.31-8.1-7.78-20.13-7.78-32.03,0-13.33,3.03-23.93,7.95-31.17,4.92-7.24,11.69-11.12,19.27-11.13,6.6,0,13.91,2.79,18.91,10.51,5.37,8.23,7.78,20.63,7.77,32.66,0,11.15-2.4,22.94-7.33,30.54-5,7.73-12.72,11.39-19.36,11.39-6.76,0-14.37-3.06-19.45-10.77l-.38,.25-.38,.25c5.25,7.98,13.18,11.18,20.2,11.18,6.96,0,14.95-3.83,20.11-11.8,5.07-7.85,7.47-19.75,7.47-31.03,0-12.15-2.4-24.67-7.92-33.15-5.17-7.99-12.82-10.93-19.67-10.92-7.91,0-14.98,4.09-20.02,11.52-5.05,7.44-8.11,18.21-8.11,31.68,0,12.02,2.47,24.19,7.93,32.53l.38-.25Zm28.4-11.09l.44,.11c1.2-5.04,1.51-11.17,1.51-16.55,0-7.75-.46-16.12-2.11-23.41h0c-.84-3.47-2.13-7.05-3.86-9.81-1.72-2.74-3.91-4.73-6.6-4.75-2.16,0-3.93,1.42-5.31,3.44-1.39,2.03-2.45,4.71-3.21,7.49h0c-1.36,5.19-1.73,11.56-1.73,17.07,0,7.75,.6,16.25,2.32,23.42,.84,3.46,2.1,6.98,3.78,9.68,1.68,2.68,3.82,4.61,6.46,4.62,2.22,0,4.09-1.34,5.54-3.37,1.45-2.04,2.53-4.8,3.21-7.83l-.44-.1,.44,.11-.44-.11-.44-.1c-.66,2.95-1.71,5.61-3.06,7.51-1.36,1.9-2.97,2.99-4.8,2.99-2.15,0-4.08-1.62-5.69-4.2-1.61-2.57-2.85-6.02-3.67-9.41-1.7-7.06-2.3-15.5-2.3-23.21,0-5.46,.38-11.79,1.7-16.83l-.44-.11,.44,.12c.75-2.71,1.78-5.32,3.09-7.22,1.31-1.91,2.83-3.05,4.56-3.04,2.18-.01,4.18,1.68,5.83,4.32,1.65,2.63,2.93,6.15,3.75,9.54l.44-.11-.44,.1c1.62,7.18,2.09,15.5,2.09,23.21,0,5.34-.31,11.43-1.49,16.34h0l.44,.11Z"/><path class="cls-4" d="M80.99,90.64l-2.18,.53c-2.91-12.65-11.22-23.73-19.52-23.73-4.68,0-10.6,4.68-10.6,13.68s6.13,11.08,9.97,13.15l12.14,6.06c9.45,4.84,17.25,12.12,17.25,30.81,0,13.85-4.15,24.24-11.02,31.68-6.54,7.27-15.57,10.22-23.36,10.22-5.3,0-9.35-1.04-14.55-2.6-1.97-.69-4.88-1.74-6.86-1.74-2.39,0-4.04,1.57-5.61,4.17l-2.29-48.3,2.29-.51c1.98,20.08,11.84,35.14,24.2,35.14,6.44,0,14.33-4.33,14.33-17.14,0-9.52-5.51-12.11-9.87-14.37l-10.48-5.71c-3.95-2.08-8.83-5.02-12.05-9.35-3.74-5.02-6.13-12.98-6.13-20.94,0-11.25,4.05-22.33,9.56-28.74,5.71-6.58,12.67-9.35,19.52-9.35,3.95,0,6.86,1.04,10.7,2.25,1.66,.52,3.84,1.38,5.4,1.38,2.07,0,4.99-1.2,6.45-4.14l2.7,37.56Z"/><path class="cls-3" d="M80.99,90.64l-.11-.44-2.18,.53,.11,.44,.44-.1c-1.47-6.39-4.3-12.37-7.83-16.79-3.53-4.41-7.77-7.28-12.13-7.29-2.49,0-5.25,1.23-7.39,3.62-2.14,2.38-3.66,5.92-3.66,10.52,0,4.43,1.59,7.35,3.68,9.37,2.08,2.01,4.63,3.16,6.53,4.18h0l12.15,6.07,.2-.4-.21,.4c4.69,2.4,8.92,5.39,12,10.06,3.07,4.67,5,11.06,5,20.35,0,13.76-4.12,24.02-10.9,31.38h0c-6.44,7.16-15.35,10.07-23.03,10.07-5.24,0-9.23-1.03-14.42-2.58l-.13,.43,.15-.43c-1.98-.69-4.89-1.76-7.01-1.76-1.3,0-2.43,.44-3.4,1.21-.97,.77-1.8,1.86-2.6,3.18l.39,.23,.45-.02-2.27-47.92,1.92-.43-.1-.44-.45,.04c1,10.1,3.97,18.95,8.28,25.31,4.31,6.35,9.99,10.24,16.37,10.24,3.32,0,7.02-1.11,9.89-3.89,2.88-2.78,4.89-7.2,4.89-13.7,0-4.84-1.42-8.01-3.42-10.21-2-2.2-4.53-3.43-6.7-4.56l-.21,.4,.22-.4-10.48-5.71h0c-3.93-2.07-8.75-4.99-11.9-9.22-3.66-4.91-6.04-12.8-6.04-20.67,0-11.15,4.03-22.15,9.45-28.44,5.64-6.49,12.45-9.19,19.18-9.19,3.86,0,6.71,1.02,10.57,2.23,1.65,.51,3.82,1.39,5.53,1.4,2.23,0,5.3-1.27,6.85-4.4l-.4-.2-.45,.03,2.7,37.56,.45-.03-.11-.44,.11,.44,.45-.03-2.82-39.22-.74,1.49c-1.36,2.76-4.12,3.9-6.04,3.89-1.41,0-3.58-.83-5.26-1.36-3.83-1.2-6.8-2.27-10.84-2.27-6.98,0-14.07,2.83-19.86,9.51-5.6,6.51-9.66,17.67-9.67,29.03,0,8.05,2.41,16.08,6.22,21.21,3.29,4.43,8.23,7.39,12.2,9.48l.21-.4-.22,.4,10.49,5.72h0c2.19,1.13,4.6,2.32,6.45,4.36,1.85,2.04,3.18,4.93,3.18,9.6,0,6.31-1.94,10.46-4.62,13.05-2.68,2.59-6.15,3.64-9.27,3.64-5.98,0-11.41-3.64-15.62-9.84-4.2-6.19-7.15-14.91-8.13-24.89l-.05-.51-3.15,.71,2.37,50.17,.77-1.28c.76-1.27,1.54-2.27,2.38-2.94,.85-.66,1.74-1.01,2.84-1.01,1.83,0,4.75,1.02,6.7,1.71h.02c5.2,1.57,9.31,2.63,14.68,2.63,7.9,0,17.05-2.99,23.7-10.37l-.34-.3,.33,.31c6.95-7.53,11.14-18.05,11.14-31.99,0-9.41-1.96-16-5.15-20.85-3.19-4.85-7.58-7.93-12.34-10.37l-12.15-6.06-.2,.4,.21-.4c-1.95-1.04-4.39-2.15-6.33-4.04-1.94-1.88-3.4-4.5-3.41-8.72,0-4.4,1.44-7.71,3.43-9.92,1.99-2.21,4.53-3.32,6.72-3.32,3.94,0,8,2.66,11.43,6.95,3.43,4.29,6.21,10.17,7.65,16.43l.1,.44,3-.72-.03-.38-.45,.03Z"/><path class="cls-4" d="M96,151.32c-.52,2.61-1.42,7.35-1.42,10.1,0,3.86,1.42,5.11,3.44,5.48v3.12h-16.45v-3.12c4.04-1.5,5.61-8.48,7.03-14.2l11.74-51.73c.38-1.49,1.27-4.99,1.27-6.73,0-1.87-.6-2.87-1.64-3.12v-3.11h21.83v3.11c-1.11,.25-1.72,1-1.72,3.12,0,1.62,6.51,33.16,11.67,58.58,1.12,5.25,2.25,13.34,6.2,14.09v3.12h-25.79v-3.12c2.39-.25,4.1-2.99,4.1-7.23,0-6.1-3.36-12.33-6.28-15.57-3.43-3.99-7.1-5.87-11.29-5.49l-2.69,12.72Zm8.56-47.29l-4.71,23.43c3.73-.13,7.4,2.62,10.39,6.11l-5.68-29.53Z"/><path class="cls-3" d="M96,151.32l-.44-.09c-.52,2.62-1.42,7.35-1.43,10.18,0,1.98,.36,3.36,1.05,4.31,.69,.96,1.69,1.42,2.76,1.61l.08-.44h-.45v2.67h-15.55v-2.67h-.45l.16,.42c2.23-.84,3.66-3.08,4.76-5.77,1.1-2.7,1.84-5.89,2.55-8.74h0l11.74-51.74-.44-.1,.44,.11c.38-1.51,1.28-4.98,1.28-6.84,0-.98-.15-1.77-.48-2.38-.33-.61-.87-1.03-1.51-1.18l-.11,.44h.45v-2.66h20.93v2.66h.45l-.1-.44c-.63,.14-1.21,.47-1.57,1.07-.36,.6-.51,1.39-.51,2.49,0,.3,.11,.93,.3,2.02,1.32,7.49,6.86,34.41,11.39,56.65,.56,2.61,1.12,5.96,2.05,8.78,.47,1.41,1.02,2.69,1.75,3.7,.72,1,1.62,1.74,2.76,1.96l.08-.44h-.45v2.67h-24.88v-2.67h-.45l.05,.45c1.36-.14,2.52-1,3.29-2.34,.78-1.34,1.21-3.16,1.21-5.34-.01-6.27-3.41-12.55-6.4-15.88l-.34,.3,.34-.3c-3.19-3.72-6.67-5.7-10.58-5.69-.36,0-.72,.02-1.09,.05l-.33,.03-2.76,13.04h0l.44,.09,.44,.09,2.69-12.72-.44-.09,.04,.45c.34-.03,.67-.05,1-.05,3.59,0,6.8,1.78,9.9,5.38h0c2.85,3.17,6.18,9.35,6.17,15.28,0,2.06-.42,3.73-1.09,4.88-.68,1.16-1.57,1.79-2.6,1.9l-.4,.04v3.98h26.69v-3.94l-.37-.07c-.84-.16-1.55-.71-2.2-1.6-1.93-2.67-2.81-8.19-3.65-12.14-2.58-12.71-5.5-26.94-7.77-38.21-1.14-5.63-2.11-10.52-2.8-14.1-.35-1.79-.62-3.25-.81-4.32-.19-1.05-.29-1.76-.28-1.86,0-1.02,.15-1.66,.38-2.03,.23-.36,.51-.54,.99-.65l.35-.08v-3.92h-22.74v3.92l.35,.08c.41,.1,.69,.31,.92,.73,.23,.42,.38,1.06,.38,1.95,0,1.62-.88,5.14-1.26,6.62h0l-11.74,51.74,.44,.1-.44-.11c-.71,2.86-1.46,6.02-2.51,8.62-1.06,2.61-2.42,4.6-4.24,5.26l-.29,.11v3.88h17.36v-3.95l-.37-.07c-.94-.18-1.67-.53-2.19-1.25-.53-.73-.88-1.91-.88-3.78,0-2.66,.89-7.41,1.41-10.01l-.44-.09,.44,.09-.44-.09Zm8.56-47.29l-.44-.09-4.82,23.98,.57-.02h.23c3.41-.02,6.91,2.58,9.79,5.95l1.11,1.3-6-31.21h-.89l.44,.09-.44,.09,5.68,29.53,.44-.09,.34-.29c-2.96-3.45-6.6-6.25-10.48-6.27h-.27l.02,.46,.44,.09,4.71-23.43-.44-.09-.44,.09,.44-.09Z"/><path class="cls-4" d="M178.67,103.76c0-8.72-1.49-12.59-4.56-12.47v-3.11h15.02v3.11c-3.06-.13-4.1,3.74-4.1,12.47v50.72c0,8.72,1.05,12.59,4.1,12.47v3.12h-15.02v-3c2.39-.63,3.81-2.86,3.81-7.1,0-5.98-2.16-10.08-4.41-14.33l-22.21-42.62v51.59c0,8.74,.97,12.6,4.04,12.47v3.12h-14.51v-3.12c3.07,.13,4.12-3.73,4.12-12.47v-50.84c0-8.72-1.05-12.59-4.12-12.47v-3.11h28.57v3.11c-1.06,.5-1.95,1.37-1.95,3.37,0,2.61,2.02,6.1,2.99,7.97l8.22,16.82v-15.7Z"/><path class="cls-3" d="M178.67,103.76h.45c0-4.32-.36-7.47-1.12-9.61-.38-1.07-.87-1.89-1.5-2.46-.63-.57-1.4-.86-2.24-.86h-.17l.02,.46h.45v-2.66h14.12v2.66h.45l.02-.45h-.16c-.84,0-1.59,.29-2.18,.87-.88,.87-1.41,2.28-1.75,4.26-.34,1.98-.48,4.56-.48,7.79v50.72c0,4.32,.25,7.46,.9,9.59,.33,1.06,.75,1.89,1.34,2.46,.59,.58,1.35,.87,2.18,.87h.14v-.45h-.46v2.66h-14.12v-2.55h-.45l.11,.44c1.3-.34,2.38-1.15,3.08-2.41,.71-1.26,1.07-2.96,1.07-5.13,0-6.09-2.22-10.3-4.46-14.54l-22.21-42.62-.85,.21v51.59c0,4.32,.23,7.46,.86,9.59,.32,1.07,.73,1.89,1.31,2.47,.58,.58,1.34,.88,2.17,.87h.16v-.45h-.46v2.67h-13.61v-2.67h-.45l-.02,.45h.17c.84,0,1.6-.29,2.18-.87,.88-.87,1.41-2.28,1.75-4.26,.34-1.98,.48-4.56,.48-7.8v-50.84c0-4.31-.25-7.45-.9-9.59-.33-1.07-.75-1.89-1.34-2.47-.59-.58-1.35-.87-2.18-.87h-.17l.02,.46h.45v-2.66h27.67v2.66h.45l-.19-.41c-.57,.27-1.14,.66-1.55,1.28-.41,.62-.66,1.44-.65,2.5,.02,2.82,2.08,6.31,3.04,8.18l.4-.21-.41,.2,8.22,16.82,.86-.2v-15.7h-.9v13.74l-7.37-15.07h0c-.99-1.88-2.96-5.37-2.94-7.77,0-.94,.21-1.56,.5-2,.3-.44,.7-.74,1.19-.96l.26-.12v-3.85h-29.47v4.04l.48-.03h.12c.64,0,1.12,.19,1.55,.61,.65,.63,1.17,1.86,1.5,3.76,.33,1.9,.47,4.44,.47,7.64v50.84c0,4.28-.26,7.37-.86,9.33-.3,.98-.68,1.66-1.11,2.08-.43,.42-.91,.61-1.55,.61h-.13l-.47-.02v4.04h15.41v-4.03h-.46l-.14,.02c-.64,0-1.11-.19-1.53-.61-.64-.62-1.15-1.86-1.46-3.76-.31-1.9-.45-4.44-.45-7.65v-49.74l21.36,40.99c2.25,4.26,4.36,8.26,4.36,14.12,0,2.07-.35,3.62-.95,4.69-.61,1.07-1.44,1.69-2.52,1.98l-.34,.09v3.8h15.93v-4.03h-.59c-.64,0-1.12-.18-1.55-.6-.65-.62-1.17-1.86-1.5-3.76-.33-1.9-.47-4.44-.47-7.65v-50.72c0-4.27,.26-7.37,.86-9.32,.3-.98,.68-1.66,1.11-2.08,.43-.42,.91-.61,1.55-.61h.12l.47,.02v-4.04h-15.93v4.04l.48-.03h.12c.64,0,1.16,.2,1.64,.62,.72,.64,1.32,1.87,1.72,3.77,.4,1.89,.6,4.42,.6,7.63h.45Z"/><path class="cls-4" d="M195.54,103.46c0-8.72-1.05-12.59-4.11-12.47v-3.11h23.78c7.7,.13,14.66,1.36,20.86,9.6,6.21,8.1,9.64,20.94,9.64,34.03,0,10.71-2.23,21.55-7.17,28.92-5.3,7.85-12.56,9.47-19.44,9.47h-27.67v-3.12c3.06,.13,4.11-3.73,4.11-12.46v-50.85Zm15.76,44.06c0,7.09-.22,13.71,5.31,13.71,9.57,0,13.68-16.08,13.68-29.92s-4.41-35.64-14.74-35.64c-4.26,0-4.26,5.97-4.26,11.23v40.62Z"/><path class="cls-3" d="M195.54,103.46h.45c0-4.31-.25-7.46-.9-9.59-.33-1.07-.75-1.89-1.34-2.47-.59-.58-1.35-.87-2.18-.87h-.17l.03,.45h.45v-2.66h23.32v0c7.67,.14,14.38,1.31,20.5,9.42,6.13,7.99,9.56,20.75,9.55,33.76,0,10.65-2.23,21.42-7.1,28.66-5.21,7.69-12.25,9.25-19.06,9.27h-27.22v-2.67h-.45l-.02,.45h.16c.84,0,1.59-.29,2.18-.87,.88-.87,1.41-2.27,1.75-4.25,.34-1.98,.48-4.56,.48-7.79v-50.85h-.9v50.85c0,4.27-.26,7.37-.86,9.32-.3,.98-.68,1.66-1.11,2.08-.43,.42-.91,.61-1.55,.61h-.13l-.47-.02v4.04h28.12c6.93,.01,14.42-1.66,19.81-9.67,5.02-7.48,7.25-18.39,7.25-29.17,0-13.17-3.44-26.08-9.74-34.3-6.28-8.37-13.48-9.66-21.21-9.77h-24.24v4.04l.48-.03h.12c.64,0,1.12,.19,1.55,.61,.65,.63,1.17,1.86,1.49,3.76,.33,1.9,.47,4.44,.47,7.64h.45Zm15.76,44.06h-.45c0,.53,0,1.06,0,1.58,0,3.24,.04,6.3,.76,8.62,.36,1.16,.9,2.16,1.72,2.86,.83,.71,1.92,1.1,3.29,1.1,2.52,0,4.7-1.07,6.49-2.86,5.36-5.37,7.63-17.07,7.64-27.51,0-7.21-1.11-16.15-3.52-23.34-1.21-3.59-2.74-6.75-4.66-9.04-1.91-2.28-4.26-3.72-7-3.71-1.17,0-2.12,.43-2.79,1.16-1.01,1.1-1.46,2.75-1.69,4.6-.23,1.86-.23,3.95-.23,5.92v40.62h.9v-40.62c0-2.62,0-5.41,.52-7.47,.25-1.03,.63-1.87,1.16-2.43,.53-.56,1.17-.87,2.13-.87,2.42,0,4.49,1.23,6.31,3.39,5.46,6.47,7.99,21.12,7.97,31.79,0,6.87-1.03,14.32-3.22,19.99-1.1,2.84-2.48,5.23-4.15,6.88-1.67,1.66-3.59,2.59-5.86,2.6-1.2,0-2.05-.32-2.7-.88-.98-.83-1.55-2.29-1.84-4.19-.3-1.89-.33-4.19-.32-6.61,0-.52,0-1.05,0-1.58h-.45Z"/><path class="cls-4" d="M267.72,170.03h-23.55v-3.11c3.06,.14,4.11-3.74,4.11-12.46v-50.86c0-8.71-1.05-12.58-4.11-12.46v-3.12h23.55v3.12c-3.06-.13-4.11,3.74-4.11,12.46v50.86c0,8.72,1.05,12.6,4.11,12.46v3.11Z"/><path class="cls-3" d="M267.72,170.03v-.45h-23.1v-2.66h-.45l-.02,.45h.18c.83,0,1.59-.29,2.17-.87,.88-.87,1.41-2.28,1.75-4.26,.34-1.98,.48-4.56,.48-7.78v-50.86c0-4.31-.25-7.45-.9-9.58-.33-1.06-.76-1.89-1.34-2.46-.59-.58-1.35-.87-2.18-.87h-.17l.03,.45h.45v-2.67h22.65v2.67h.45l.02-.45h-.16c-.84,0-1.6,.29-2.18,.87-.88,.87-1.41,2.28-1.75,4.25-.34,1.98-.48,4.56-.48,7.79v50.86c0,4.3,.25,7.44,.89,9.57,.32,1.07,.75,1.89,1.34,2.47,.58,.58,1.34,.88,2.17,.87h.17v-.45h-.47v3.11h.45v0h.45v-3.58h-.47l-.15,.02c-.64,0-1.11-.2-1.54-.61-.65-.63-1.17-1.87-1.49-3.76-.33-1.9-.47-4.43-.47-7.63v-50.86c0-4.27,.26-7.36,.86-9.32,.3-.98,.68-1.66,1.11-2.08,.44-.42,.91-.61,1.55-.61h.12l.47,.02v-4.04h-24.45v4.05l.48-.03h.12c.64,0,1.12,.19,1.55,.61,.65,.63,1.17,1.86,1.5,3.76,.33,1.9,.47,4.43,.47,7.64v50.86c0,4.26-.26,7.35-.86,9.31-.3,.98-.68,1.66-1.11,2.08-.43,.42-.91,.61-1.54,.61h-.14l-.47-.02v4.04h24.45v-.45h-.45Z"/><path class="cls-4" d="M269.52,170.03v-3.11c3.08,.14,4.11-3.74,4.11-12.46v-50.86c0-8.71-1.04-12.58-4.11-12.46v-3.12h33.96c1.86,.13,4.86,.5,6.28-1.98l3.82,28.66-1.65,.87c-2.17-12.09-8.6-19.32-16.08-19.32s-6.88,4.61-6.88,14.59v3.99h2.39c4.93,0,9.87,.87,9.8-10.09l1.49-.38,3.29,31.66-1.49,.24c-.83-3.48-2.03-6.73-3.68-9.22-2.9-4.48-6.05-3.99-9.79-3.99h-2.01v24.06c-.6,12.21,2.24,14.95,7.25,14.7,9.57,0,15.7-9.59,19.67-23.17l1.56,1-6.35,32.41c-1.19-2.12-2.84-2.01-4.49-2.01h-37.09Z"/><path class="cls-3" d="M269.52,170.03h.45v-3.11h-.45l-.02,.45h.18c.84,0,1.59-.29,2.18-.87,.88-.87,1.4-2.28,1.75-4.26,.34-1.98,.48-4.56,.48-7.78v-50.86c0-4.31-.25-7.45-.89-9.58-.33-1.06-.75-1.89-1.34-2.46-.59-.58-1.35-.87-2.19-.87h-.17l.03,.45h.45v-2.67h33.51v-.45l-.03,.45c.54,.04,1.21,.1,1.92,.1,.84,0,1.74-.09,2.59-.42,.85-.33,1.64-.93,2.19-1.89l-.39-.22-.45,.06,3.78,28.35-1.37,.72,.21,.4,.44-.08c-1.1-6.11-3.27-11.01-6.15-14.41-2.88-3.4-6.48-5.29-10.37-5.29-1.67,0-2.99,.23-4.03,.74-1.57,.76-2.43,2.16-2.84,4.02-.42,1.87-.47,4.24-.47,7.18,0,.97,0,2,0,3.1v4.44h2.84c.67,0,1.35,.02,2.02,.02,2.08,0,4.17-.15,5.75-1.6,1.57-1.46,2.48-4.07,2.48-8.75v-.22h-.45l.11,.44,.98-.25,3.2,30.71-1.07,.18,.07,.45,.44-.1c-.83-3.52-2.05-6.8-3.74-9.37l-.38,.25,.38-.25c-1.22-1.89-2.53-2.97-3.91-3.55-1.39-.58-2.81-.66-4.28-.66-.65,0-1.31,.02-1.98,.02h-2.46v24.51h.45l-.45-.02c-.05,1.09-.08,2.11-.08,3.06,0,4.64,.63,7.64,1.86,9.54,1.24,1.91,3.14,2.6,5.32,2.59,.2,0,.41,0,.62-.02l-.02-.45v.45c4.95,0,9.02-2.5,12.29-6.67,3.28-4.17,5.82-10.01,7.81-16.83l-.43-.13-.24,.38,1.3,.83-6.29,32.11,.44,.09,.39-.22c-.57-1.03-1.31-1.63-2.09-1.92-.78-.3-1.57-.31-2.32-.31h-37.56v.45h0v.45h37.56c.74,0,1.41,.03,2,.25,.59,.23,1.12,.64,1.62,1.52l.6,1.07,6.65-33.92-2.33-1.48-.17,.58c-1.97,6.76-4.49,12.51-7.65,16.53-3.18,4.02-6.96,6.32-11.58,6.32h-.02c-.2,0-.39,.01-.58,.01-2.02-.01-3.49-.56-4.57-2.18-1.08-1.63-1.72-4.48-1.72-9.05,0-.93,.03-1.93,.08-3.01h0v-23.63h1.56c.68,0,1.34-.02,1.98-.02,1.43,0,2.72,.09,3.93,.59,1.2,.51,2.35,1.43,3.51,3.21h0c1.61,2.43,2.8,5.63,3.62,9.08l.1,.41,1.91-.31,.42-.07-3.39-32.6-1.99,.51-.34,.09v.56c0,4.58-.91,6.91-2.19,8.08-1.27,1.18-3.08,1.36-5.14,1.36-.66,0-1.33-.02-2.02-.02h-1.94v-3.54c0-1.1,0-2.13,0-3.1,0-3.91,.11-6.75,.95-8.49,.42-.87,.99-1.48,1.85-1.9,.86-.42,2.04-.65,3.63-.65,3.59,0,6.93,1.73,9.68,4.97,2.75,3.24,4.88,8,5.95,13.98l.11,.61,2.48-1.3-4.04-30.3-.66,1.16c-.45,.78-1.05,1.23-1.74,1.5-.69,.27-1.49,.36-2.26,.36-.66,0-1.29-.06-1.85-.1h-34.44v4.05l.48-.03h.12c.64,0,1.12,.19,1.56,.61,.65,.63,1.17,1.86,1.49,3.76,.33,1.9,.47,4.43,.47,7.64v50.86c0,4.26-.26,7.35-.85,9.31-.3,.98-.67,1.66-1.1,2.08-.43,.42-.91,.61-1.55,.61h-.14l-.47-.02v4.04h.45v-.45Z"/><path class="cls-4" d="M370.04,152.46c0,2.75-.08,8.61,.66,10.97,.61,1.99,1.87,2.75,3.06,3.48v3.11h-24.08c-7.69,0-15.62-1.11-21.98-9.21-6.43-8.23-10.24-21.95-10.24-35.28,0-26.92,12.56-39.51,27.52-39.51l11.66,1.87c1.13,.38,2.25,.75,3.37,.75,1.65,0,3.14-1.25,4.12-3.49l2.31,29.16-1.57,.37c-2.69-11.09-8.9-19.31-16.23-19.31-10.69,0-14.73,15.95-14.73,31.4s4.71,35.02,15.33,35.02c1.95,0,4.26-1.12,5.25-4.11,.89-2.62,.82-6.6,.82-9.59v-11.47c0-6.11,.37-12.71-4.57-13.08v-3.12h23.99v3.12c-5.3,.49-4.7,7.84-4.7,14.46v14.45Z"/><path class="cls-3" d="M370.04,152.46h-.45c0,.48,0,1.05,0,1.68,0,3.02,.04,7.33,.68,9.43,.65,2.14,2.08,3.01,3.26,3.73l.24-.38h-.45v2.66h-23.62c-7.67-.01-15.37-1.09-21.63-9.04-6.34-8.1-10.15-21.75-10.14-35,0-13.39,3.13-23.17,8.06-29.57,4.93-6.41,11.66-9.48,19.01-9.48v-.45l-.07,.45,11.66,1.87,.07-.45-.14,.43c1.13,.37,2.29,.77,3.51,.78,1.9,0,3.52-1.44,4.53-3.76l-.41-.18-.45,.04,2.28,28.77-1.19,.28,.1,.44,.44-.11c-1.36-5.6-3.6-10.48-6.46-13.99-2.86-3.51-6.36-5.66-10.2-5.66-2.79,0-5.17,1.05-7.12,2.85-5.83,5.42-8.05,17.35-8.07,29,0,7.53,1.18,16.32,3.71,23.27,1.27,3.48,2.87,6.5,4.86,8.68,1.99,2.18,4.4,3.52,7.21,3.51,2.11,.01,4.64-1.24,5.68-4.42l-.43-.14,.43,.15c.8-2.35,.84-5.61,.84-8.38,0-.47,0-.92,0-1.36v-11.47c0-.8,0-1.61,0-2.42,0-2.67-.06-5.28-.7-7.34-.32-1.03-.79-1.93-1.49-2.6-.7-.67-1.64-1.09-2.8-1.18l-.03,.45h.45v-2.67h23.09v2.67h.45l-.04-.45c-2.35,.2-3.72,1.76-4.36,3.81-.67,2.06-.76,4.67-.76,7.39,0,1.24,.02,2.49,.02,3.71v14.45h.9v-14.45c0-1.23-.02-2.49-.02-3.71,0-2.69,.11-5.24,.72-7.1,.63-1.87,1.62-2.99,3.59-3.19l.41-.04v-3.98h-24.9v3.99l.42,.03c.99,.08,1.69,.4,2.25,.93,.83,.79,1.33,2.09,1.6,3.73,.27,1.63,.31,3.56,.31,5.55,0,.8,0,1.62,0,2.42v11.47c0,.43,0,.89,0,1.36,0,2.75-.06,5.96-.79,8.09h0c-.93,2.81-3.04,3.79-4.82,3.8-2.5,0-4.66-1.17-6.54-3.22-5.66-6.14-8.35-20.2-8.34-31.34,0-7.69,1.01-15.5,3.33-21.33,1.16-2.92,2.64-5.34,4.45-7.01,1.82-1.67,3.95-2.61,6.51-2.61,3.49,0,6.75,1.95,9.5,5.33,2.75,3.37,4.95,8.14,6.28,13.63l.11,.44,2.01-.47,.38-.09-2.34-29.55-.87-.15c-.95,2.16-2.31,3.23-3.71,3.22-1.02,0-2.1-.35-3.23-.73h-.04l-11.73-1.89h-.04c-7.6,0-14.64,3.22-19.72,9.84-5.09,6.62-8.24,16.6-8.24,30.12,0,13.42,3.82,27.2,10.34,35.55,6.47,8.24,14.62,9.39,22.34,9.38h24.53v-3.82l-.21-.13c-1.2-.75-2.3-1.39-2.87-3.23-.58-1.82-.65-6.18-.64-9.16,0-.63,0-1.2,0-1.68h-.45Z"/><path class="cls-4" d="M384.67,161.1c-5.38-8.23-7.84-20.32-7.84-32.27,0-26.8,12.17-42.75,27.66-42.75,6.73,0,14.21,2.86,19.3,10.71,5.46,8.35,7.86,20.81,7.86,32.9,0,11.22-2.4,23.06-7.41,30.78-5.09,7.86-12.94,11.6-19.74,11.6s-14.65-3.12-19.82-10.97Zm28.4-11.09c1.19-4.99,1.5-11.09,1.5-16.46,0-7.72-.45-16.07-2.1-23.3-1.64-6.86-5.15-14.22-10.01-14.22-3.9,0-6.58,5.11-8.08,10.6-1.35,5.11-1.72,11.47-1.72,16.95,0,7.73,.61,16.21,2.32,23.31,1.65,6.85,5.01,13.95,9.78,13.95,4.04,0,6.97-4.85,8.31-10.84Z"/><path class="cls-3" d="M384.67,161.1l.38-.25c-5.31-8.11-7.77-20.13-7.77-32.03,0-13.33,3.03-23.94,7.94-31.17,4.92-7.24,11.68-11.12,19.26-11.13,6.61,0,13.91,2.79,18.92,10.51,5.39,8.23,7.79,20.62,7.78,32.66,0,11.16-2.4,22.94-7.34,30.54-5.01,7.73-12.73,11.39-19.36,11.39-6.75,0-14.36-3.05-19.44-10.77l-.38,.25-.38,.25c5.25,7.99,13.18,11.18,20.19,11.17,6.96,0,14.95-3.82,20.12-11.8,5.09-7.85,7.48-19.74,7.48-31.03,0-12.15-2.4-24.68-7.93-33.15-5.17-7.99-12.82-10.92-19.67-10.92-7.9,0-14.97,4.09-20.01,11.52-5.05,7.44-8.1,18.21-8.1,31.68,0,12.02,2.46,24.17,7.92,32.52l.38-.25Zm28.4-11.09l.44,.11c1.21-5.05,1.51-11.18,1.51-16.56,0-7.74-.45-16.12-2.11-23.4-.83-3.47-2.13-7.06-3.86-9.82-1.72-2.75-3.92-4.73-6.6-4.75-2.16,0-3.93,1.42-5.31,3.44-1.39,2.03-2.44,4.72-3.2,7.49-1.37,5.18-1.73,11.57-1.73,17.06,0,7.75,.61,16.26,2.34,23.42,.83,3.46,2.09,6.98,3.77,9.68,1.67,2.68,3.81,4.61,6.45,4.62,2.22,0,4.09-1.34,5.54-3.36,1.45-2.03,2.53-4.79,3.21-7.83l-.44-.1,.44,.11-.44-.11-.44-.1c-.66,2.95-1.71,5.61-3.07,7.5-1.36,1.9-2.97,2.99-4.8,2.99-2.14,0-4.07-1.61-5.68-4.19-1.6-2.57-2.85-6.02-3.66-9.41-1.7-7.05-2.31-15.51-2.31-23.21,0-5.45,.37-11.79,1.7-16.83,.74-2.71,1.77-5.32,3.07-7.22,1.31-1.91,2.83-3.05,4.57-3.04,2.18-.01,4.17,1.68,5.83,4.32,1.65,2.63,2.93,6.15,3.74,9.55,1.64,7.16,2.09,15.49,2.09,23.19,0,5.35-.3,11.43-1.48,16.35h0l.44,.11Z"/><path class="cls-6" d="M282.4,57.26c-.39-2.17-1.94-2.58-2.94-2.58-1.9,0-3.43,1.66-3.43,4.94,0,2.92,.88,5.17,3.48,5.17,.91,0,2.5-.52,2.99-3.41h1.37c-.58,4.69-3.8,4.89-4.59,4.89-2.37,0-4.72-1.82-4.72-6.61,0-3.82,1.85-6.46,4.9-6.46,2.7,0,4.1,1.98,4.31,4.06h-1.37Z"/><polygon class="cls-6" points="293.47 65.96 285.73 65.96 285.73 53.53 293.36 53.53 293.36 55.01 287.14 55.01 287.14 58.82 292.88 58.82 292.88 60.32 287.14 60.32 287.14 64.47 293.47 64.47 293.47 65.96"/><polygon class="cls-6" points="302.28 53.53 303.65 53.53 303.65 65.96 302.06 65.96 296.73 55.91 296.69 55.91 296.69 65.96 295.33 65.96 295.33 53.53 297.01 53.53 302.25 63.57 302.28 63.57 302.28 53.53"/><polygon class="cls-6" points="304.97 53.53 313.49 53.53 313.49 55.01 309.93 55.01 309.93 65.96 308.51 65.96 308.51 55.01 304.97 55.01 304.97 53.53"/><path class="cls-6" d="M316.39,65.96h-1.43v-12.43h4.86c1.72,0,3.45,.71,3.45,3.34,0,1.84-.8,2.51-1.46,2.98,.59,.29,1.2,.61,1.26,2.33l.09,2.25c.02,.7,.09,.96,.53,1.25v.28h-1.74c-.21-.76-.26-2.65-.26-3.12,0-1.03-.17-2.21-1.87-2.21h-3.43v5.33Zm0-6.77h3.28c1.04,0,2.13-.31,2.13-2.14s-1.18-2.08-1.89-2.08h-3.53v4.22Z"/><path class="cls-6" d="M329.92,66.28c-3.92,0-5.11-3.85-5.11-6.54s1.19-6.54,5.11-6.54,5.1,3.86,5.1,6.54-1.19,6.54-5.1,6.54Zm0-11.59c-2.28,0-3.65,2.13-3.65,5.06s1.38,5.05,3.65,5.05,3.66-2.13,3.66-5.05-1.38-5.06-3.66-5.06Z"/><path class="cls-6" d="M348.13,57.26c-.4-2.17-1.93-2.58-2.94-2.58-1.9,0-3.44,1.66-3.44,4.94,0,2.92,.88,5.17,3.48,5.17,.92,0,2.52-.52,2.99-3.41h1.38c-.58,4.69-3.79,4.89-4.59,4.89-2.38,0-4.72-1.82-4.72-6.61,0-3.82,1.84-6.46,4.9-6.46,2.7,0,4.1,1.98,4.3,4.06h-1.36Z"/><path class="cls-6" d="M355.88,66.28c-3.91,0-5.11-3.85-5.11-6.54s1.2-6.54,5.11-6.54,5.11,3.86,5.11,6.54-1.2,6.54-5.11,6.54Zm0-11.59c-2.29,0-3.66,2.13-3.66,5.06s1.37,5.05,3.66,5.05,3.65-2.13,3.65-5.05-1.37-5.06-3.65-5.06Z"/><path class="cls-6" d="M371.31,65.96v-7.34c0-.36,.03-1.94,.03-3.09h-.03l-2.96,10.43h-1.4l-2.95-10.43h-.03c0,1.14,.03,2.72,.03,3.09v7.34h-1.38v-12.43h2.03l2.99,10.5h.04l2.97-10.5h2.02v12.43h-1.36Z"/><polygon class="cls-6" points="382.72 65.96 374.99 65.96 374.99 53.53 382.62 53.53 382.62 55.01 376.4 55.01 376.4 58.82 382.14 58.82 382.14 60.32 376.4 60.32 376.4 64.47 382.72 64.47 382.72 65.96"/><path class="cls-6" d="M386.18,65.96h-1.42v-12.43h4.85c1.73,0,3.46,.71,3.46,3.34,0,1.84-.79,2.51-1.46,2.98,.59,.29,1.19,.61,1.25,2.33l.1,2.25c0,.7,.08,.96,.51,1.25v.28h-1.73c-.2-.76-.24-2.65-.24-3.12,0-1.03-.17-2.21-1.88-2.21h-3.43v5.33Zm0-6.77h3.29c1.03,0,2.14-.31,2.14-2.14s-1.18-2.08-1.89-2.08h-3.53v4.22Z"/><path class="cls-6" d="M402.49,57.26c-.39-2.17-1.93-2.58-2.93-2.58-1.9,0-3.43,1.66-3.43,4.94,0,2.92,.87,5.17,3.47,5.17,.92,0,2.51-.52,3-3.41h1.37c-.58,4.69-3.79,4.89-4.58,4.89-2.39,0-4.72-1.82-4.72-6.61,0-3.82,1.84-6.46,4.9-6.46,2.69,0,4.11,1.98,4.3,4.06h-1.37Z"/><rect class="cls-6" x="405.9" y="53.53" width="1.42" height="12.43"/><path class="cls-6" d="M411.39,62.33l-1.1,3.62h-1.45l3.94-12.43h1.6l3.8,12.43h-1.54l-1.04-3.62h-4.21Zm3.7-1.49l-1.55-5.46h-.03l-1.68,5.46h3.26Z"/><polygon class="cls-6" points="420.9 64.47 426.22 64.47 426.22 65.96 419.49 65.96 419.49 53.53 420.9 53.53 420.9 64.47"/><path class="cls-5" d="M77.14,86.86l-2.18,.52c-2.91-12.64-11.22-23.72-19.53-23.72-4.67,0-10.6,4.68-10.6,13.68s6.13,11.08,9.98,13.16l12.15,6.06c9.45,4.84,17.24,12.11,17.24,30.8,0,13.86-4.16,24.24-11.01,31.68-6.54,7.27-15.58,10.22-23.37,10.22-5.29,0-9.34-1.05-14.54-2.6-1.97-.68-4.88-1.73-6.86-1.73-2.39,0-4.05,1.56-5.61,4.16l-2.29-48.29,2.29-.52c1.97,20.09,11.84,35.14,24.2,35.14,6.44,0,14.33-4.33,14.33-17.14,0-9.52-5.5-12.12-9.87-14.37l-10.49-5.71c-3.95-2.08-8.82-5.03-12.04-9.35-3.75-5.02-6.13-12.99-6.13-20.95,0-11.25,4.05-22.33,9.56-28.73,5.71-6.58,12.67-9.34,19.52-9.34,3.95,0,6.86,1.02,10.7,2.24,1.66,.53,3.84,1.39,5.41,1.39,2.07,0,4.98-1.22,6.43-4.16l2.7,37.57Z"/><path class="cls-5" d="M92.44,147.8c-.53,2.61-1.43,7.35-1.43,10.08,0,3.88,1.43,5.12,3.44,5.49v3.12h-16.45v-3.12c4.04-1.48,5.61-8.47,7.04-14.2l11.73-51.72c.37-1.51,1.27-4.99,1.27-6.74,0-1.87-.61-2.86-1.65-3.11v-3.11h21.83v3.11c-1.11,.25-1.71,1-1.71,3.12,0,1.63,6.5,33.15,11.66,58.58,1.12,5.23,2.25,13.34,6.2,14.08v3.12h-25.79v-3.12c2.4-.25,4.11-2.99,4.11-7.22,0-6.11-3.36-12.34-6.28-15.58-3.44-3.99-7.1-5.85-11.29-5.49l-2.69,12.73Zm9.72-46.75l-4.72,23.42c3.75-.12,7.41,2.62,10.4,6.11l-5.68-29.54Z"/><path class="cls-5" d="M175.1,100.21c0-8.73-1.49-12.6-4.56-12.47v-3.11h15.04v3.11c-3.08-.13-4.12,3.74-4.12,12.47v50.72c0,8.72,1.04,12.59,4.12,12.46v3.12h-15.04v-2.98c2.4-.63,3.82-2.88,3.82-7.11,0-5.98-2.17-10.1-4.41-14.33l-22.21-42.63v51.6c0,8.73,.98,12.6,4.04,12.47v3.11h-14.51v-3.11c3.06,.12,4.12-3.75,4.12-12.47v-50.84c0-8.73-1.05-12.6-4.12-12.47v-3.11h28.57v3.11c-1.04,.5-1.94,1.38-1.94,3.36,0,2.62,2.02,6.12,2.99,7.99l8.22,16.82v-15.7Z"/><path class="cls-5" d="M192.43,100.06c0-8.72-1.04-12.59-4.12-12.47v-3.11h23.78c7.7,.13,14.66,1.36,20.87,9.59,6.2,8.1,9.64,20.93,9.64,34.03,0,10.72-2.25,21.56-7.18,28.91-5.31,7.85-12.57,9.47-19.44,9.47h-27.68v-3.12c3.08,.13,4.12-3.73,4.12-12.46v-50.85Zm15.33,44.5c0,7.1-.22,13.7,5.32,13.7,9.57,0,13.68-16.07,13.68-29.91s-4.41-35.65-14.74-35.65c-4.26,0-4.26,5.99-4.26,11.22v40.64Z"/><path class="cls-5" d="M264.18,166.49h-23.55v-3.12c3.07,.13,4.11-3.73,4.11-12.46v-50.85c0-8.72-1.05-12.59-4.11-12.47v-3.11h23.55v3.11c-3.06-.12-4.1,3.74-4.1,12.47v50.85c0,8.72,1.05,12.59,4.1,12.46v3.12Z"/><path class="cls-5" d="M265.98,166.49v-3.12c3.06,.13,4.11-3.73,4.11-12.46v-50.85c0-8.72-1.05-12.59-4.11-12.47v-3.11h33.95c1.86,.13,4.85,.49,6.27-2l3.83,28.67-1.65,.87c-2.18-12.09-8.6-19.31-16.07-19.31s-6.88,4.61-6.88,14.58v3.99h2.39c4.94,0,9.87,.88,9.79-10.09l1.5-.38,3.3,31.66-1.5,.25c-.82-3.5-2.02-6.73-3.66-9.23-2.92-4.48-6.05-3.99-9.79-3.99h-2.03v24.06c-.6,12.21,2.25,14.95,7.26,14.7,9.57,0,15.7-9.59,19.67-23.18l1.57,1.01-6.35,32.4c-1.2-2.12-2.85-1.99-4.5-1.99h-37.09Z"/><path class="cls-5" d="M366.5,148.91c0,2.74-.08,8.59,.67,10.97,.59,2,1.87,2.75,3.07,3.48v3.12h-24.09c-7.7,0-15.62-1.12-21.98-9.23-6.44-8.22-10.25-21.93-10.25-35.26,0-26.93,12.56-39.51,27.52-39.51l11.68,1.87c1.11,.37,2.23,.75,3.36,.75,1.65,0,3.14-1.25,4.12-3.49l2.31,29.17-1.56,.37c-2.71-11.09-8.9-19.32-16.24-19.32-10.68,0-14.72,15.95-14.72,31.42s4.71,35.01,15.32,35.01c1.96,0,4.27-1.11,5.24-4.11,.9-2.61,.82-6.6,.82-9.59v-11.47c0-6.11,.36-12.72-4.56-13.1v-3.11h24v3.11c-5.31,.51-4.7,7.86-4.7,14.47v14.46Z"/><path class="cls-5" d="M380.9,157.5c-5.38-8.21-7.85-20.31-7.85-32.27,0-26.79,12.19-42.75,27.66-42.75,6.73,0,14.22,2.87,19.3,10.71,5.47,8.35,7.85,20.82,7.85,32.91,0,11.21-2.38,23.06-7.4,30.78-5.08,7.86-12.94,11.6-19.75,11.6s-14.65-3.11-19.81-10.98Zm29.02-10.46c1.2-4.99,1.49-11.09,1.49-16.45,0-7.73-.44-16.08-2.09-23.31-1.66-6.85-5.17-14.21-10.03-14.21-3.88,0-6.58,5.11-8.08,10.6-1.34,5.11-1.71,11.47-1.71,16.95,0,7.72,.6,16.2,2.31,23.3,1.65,6.87,5.02,13.95,9.81,13.95,4.03,0,6.94-4.85,8.29-10.84Z"/><polygon class="cls-7" points="253.29 45.6 268.26 45.6 268.26 45.71 256.21 54.65 260.88 68.87 260.78 68.97 248.88 60.14 236.99 68.97 236.89 68.87 241.62 54.65 229.46 45.71 229.46 45.6 244.37 45.6 248.83 31.63 248.93 31.63 253.29 45.6"/><polygon class="cls-3" points="253.29 45.6 253.29 46.06 268.26 46.06 268.26 45.6 267.8 45.6 267.8 45.71 268.26 45.71 267.99 45.35 255.68 54.48 260.45 69.01 260.88 68.87 260.56 68.55 260.46 68.65 260.78 68.97 261.05 68.6 248.88 59.58 236.72 68.6 236.99 68.97 237.31 68.65 237.21 68.55 236.89 68.87 237.32 69.01 242.15 54.48 229.73 45.35 229.46 45.71 229.91 45.71 229.91 45.6 229.46 45.6 229.46 46.06 244.7 46.06 249.26 31.77 248.83 31.63 248.83 32.09 248.93 32.09 248.93 31.63 248.5 31.77 252.96 46.06 253.29 46.06 253.29 45.6 253.72 45.47 249.26 31.18 248.83 31.18 248.5 31.18 244.04 45.15 229.01 45.15 229.01 45.71 229.01 45.94 241.08 54.82 236.37 68.98 236.66 69.28 236.94 69.57 248.88 60.7 260.82 69.56 261.2 69.18 261.39 68.99 256.74 54.82 268.71 45.94 268.71 45.6 268.71 45.15 253.29 45.15 253.29 45.6 253.72 45.47 253.29 45.6"/><path class="cls-7" d="M96.08,123.64s30.3,8.65,35.48,50.19c2.62,20.94,13.85-87.42,100.41-114.25,0,0-82.23,34.63-102.14,169.65,0,0-6.93-93.48-34.62-93.48l.86-12.12Z"/><path class="cls-3" d="M96.08,123.64l-.12,.43s.11,.03,.32,.1c3.27,1.09,30,10.99,34.84,49.71,.12,.93,.25,1.61,.42,2.11,.09,.25,.18,.45,.32,.63,.13,.17,.36,.33,.63,.33,.35-.01,.58-.21,.77-.42,.37-.42,.72-1.1,1.15-2.07,3.14-7.16,9.67-30.2,24.39-54.28,14.71-24.07,37.57-49.1,73.31-60.18l-.13-.43-.18-.42c-.09,.02-82.48,34.8-102.41,170l.45,.07,.45-.03s-1.73-23.39-6.94-46.8c-2.6-11.71-6.07-23.42-10.64-32.24-2.29-4.41-4.85-8.11-7.75-10.72-2.89-2.61-6.15-4.13-9.74-4.13v.45l.45,.03,.86-12.12-.45-.03-.12,.43,.12-.43-.45-.03-.9,12.6h.49c3.33,0,6.35,1.4,9.14,3.9,9.77,8.76,16.12,31.09,19.9,51.19,1.9,10.05,3.19,19.54,3.99,26.53,.4,3.49,.69,6.35,.87,8.34,.18,1.99,.27,3.1,.27,3.1l.9,.03c9.94-67.43,35.43-109.75,58.42-135.22,11.5-12.74,22.37-21.26,30.36-26.6,4-2.67,7.27-4.54,9.55-5.74,1.14-.6,2.02-1.04,2.63-1.32,.6-.28,.91-.41,.91-.41l-.31-.85c-39.66,12.29-63.56,41.63-78.05,67.86-7.25,13.11-12.15,25.45-15.51,34.51-1.68,4.53-2.97,8.24-3.97,10.8-.5,1.28-.92,2.27-1.28,2.92-.18,.32-.33,.56-.45,.69l-.13,.11h0l.04,.12v-.12h-.04l.04,.12v.03l.08-.13-.08-.02v.15l.08-.13-.02,.04,.03-.04h0l-.02,.04,.03-.04s-.15-.21-.26-.6c-.11-.39-.21-.96-.3-1.69-2.6-20.88-11.54-33.54-19.83-40.96-8.29-7.42-15.93-9.6-15.98-9.62l-.53-.15-.04,.56,.45,.03Z"/></g></svg>