<?xml version="1.0" encoding="UTF-8"?><svg id="Fondo" xmlns="http://www.w3.org/2000/svg" viewBox="0 0 414.75 205.22"><defs><style>.cls-1{fill:#fff;}</style></defs><path class="cls-1" d="M265.6,29.13c-.39-2.18-1.94-2.59-2.95-2.59-1.9,0-3.44,1.67-3.44,4.96,0,2.93,.88,5.19,3.49,5.19,.91,0,2.51-.52,3.01-3.43h1.38c-.59,4.71-3.81,4.92-4.61,4.92-2.39,0-4.75-1.83-4.75-6.64,0-3.83,1.86-6.49,4.92-6.49,2.71,0,4.12,2,4.33,4.08h-1.38Z"/><polygon class="cls-1" points="276.72 37.86 268.95 37.86 268.95 25.38 276.62 25.38 276.62 26.88 270.37 26.88 270.37 30.7 276.13 30.7 276.13 32.2 270.37 32.2 270.37 36.37 276.72 36.37 276.72 37.86"/><polygon class="cls-1" points="285.57 25.38 286.95 25.38 286.95 37.86 285.35 37.86 280 27.78 279.96 27.78 279.96 37.86 278.59 37.86 278.59 25.38 280.27 25.38 285.54 35.47 285.57 35.47 285.57 25.38"/><polygon class="cls-1" points="288.27 25.38 296.82 25.38 296.82 26.88 293.25 26.88 293.25 37.86 291.83 37.86 291.83 26.88 288.27 26.88 288.27 25.38"/><path class="cls-1" d="M299.74,37.86h-1.43v-12.48h4.88c1.73,0,3.46,.71,3.46,3.35,0,1.85-.8,2.52-1.46,3,.6,.29,1.2,.61,1.26,2.34l.09,2.26c.01,.7,.08,.96,.53,1.26v.28h-1.75c-.21-.77-.25-2.66-.25-3.13,0-1.03-.17-2.22-1.87-2.22h-3.45v5.35Zm0-6.8h3.3c1.04,0,2.14-.31,2.14-2.15,0-1.93-1.19-2.09-1.89-2.09h-3.54v4.24Z"/><path class="cls-1" d="M313.32,38.19c-3.93,0-5.13-3.86-5.13-6.56s1.2-6.57,5.13-6.57,5.13,3.88,5.13,6.57-1.2,6.56-5.13,6.56Zm0-11.64c-2.29,0-3.67,2.13-3.67,5.08s1.38,5.08,3.67,5.08,3.67-2.14,3.67-5.08-1.39-5.08-3.67-5.08Z"/><path class="cls-1" d="M331.61,29.13c-.39-2.18-1.94-2.59-2.95-2.59-1.9,0-3.45,1.67-3.45,4.96,0,2.93,.88,5.19,3.49,5.19,.93,0,2.53-.52,3.01-3.43h1.38c-.58,4.71-3.81,4.92-4.61,4.92-2.39,0-4.74-1.83-4.74-6.64,0-3.83,1.85-6.49,4.91-6.49,2.71,0,4.13,2,4.32,4.08h-1.37Z"/><path class="cls-1" d="M339.39,38.19c-3.93,0-5.13-3.86-5.13-6.56s1.2-6.57,5.13-6.57,5.14,3.88,5.14,6.57-1.2,6.56-5.14,6.56Zm0-11.64c-2.29,0-3.67,2.13-3.67,5.08s1.38,5.08,3.67,5.08,3.66-2.14,3.66-5.08-1.37-5.08-3.66-5.08Z"/><path class="cls-1" d="M354.89,37.86v-7.37c0-.36,.03-1.95,.03-3.11h-.03l-2.98,10.48h-1.41l-2.96-10.47h-.03c0,1.15,.03,2.73,.03,3.1v7.37h-1.38v-12.48h2.04l3,10.55h.04l2.98-10.55h2.02v12.48h-1.37Z"/><polygon class="cls-1" points="366.35 37.86 358.58 37.86 358.58 25.38 366.25 25.38 366.25 26.88 360 26.88 360 30.7 365.76 30.7 365.76 32.2 360 32.2 360 36.37 366.35 36.37 366.35 37.86"/><path class="cls-1" d="M369.81,37.86h-1.42v-12.48h4.87c1.73,0,3.47,.71,3.47,3.35,0,1.85-.8,2.52-1.47,3,.6,.29,1.2,.61,1.26,2.34l.1,2.26c.01,.7,.09,.96,.51,1.26v.28h-1.74c-.2-.77-.25-2.66-.25-3.13,0-1.03-.17-2.22-1.88-2.22h-3.44v5.35Zm0-6.8h3.3c1.03,0,2.14-.31,2.14-2.15,0-1.93-1.18-2.09-1.9-2.09h-3.55v4.24Z"/><path class="cls-1" d="M386.2,29.13c-.4-2.18-1.94-2.59-2.94-2.59-1.92,0-3.45,1.67-3.45,4.96,0,2.93,.87,5.19,3.49,5.19,.92,0,2.52-.52,3-3.43h1.38c-.58,4.71-3.8,4.92-4.6,4.92-2.4,0-4.74-1.83-4.74-6.64,0-3.83,1.85-6.49,4.92-6.49,2.7,0,4.13,2,4.32,4.08h-1.38Z"/><rect class="cls-1" x="389.62" y="25.38" width="1.42" height="12.48"/><path class="cls-1" d="M395.13,34.22l-1.1,3.64h-1.45l3.95-12.48h1.61l3.82,12.48h-1.55l-1.04-3.64h-4.23Zm3.72-1.49l-1.55-5.49h-.03l-1.68,5.49h3.27Z"/><polygon class="cls-1" points="404.68 36.37 410.03 36.37 410.03 37.86 403.27 37.86 403.27 25.38 404.68 25.38 404.68 36.37"/><polygon class="cls-1" points="239.13 17.43 254.42 17.43 254.42 17.54 242.11 26.51 246.88 40.79 246.78 40.89 234.63 32.03 222.48 40.89 222.38 40.79 227.2 26.51 214.79 17.54 214.79 17.43 230.02 17.43 234.58 3.4 234.69 3.4 239.13 17.43"/><path class="cls-1" d="M95.2,128.42c0,4.25-1.72,7-4.12,7.25v3.14h9.19c-1.61-5.06-3.42-9.81-5.45-13.96,.23,1.18,.39,2.38,.39,3.58Z"/><path class="cls-1" d="M290.88,140.81l6.38-32.54-1.58-1.01c-3.97,13.65-10.14,23.28-19.75,23.28-5.02,.26-7.89-2.5-7.28-14.76v-24.16h2.04c3.75,0,6.9-.49,9.82,4,1.65,2.51,2.86,5.76,3.68,9.27l1.52-.25-3.32-31.78-1.51,.38c.08,11.01-4.87,10.13-9.83,10.13h-2.4v-4.01c0-10.01-.45-14.64,6.92-14.64s13.95,7.26,16.14,19.39l1.65-.87-3.84-28.78c-1.43,2.5-4.43,2.13-6.3,2h-34.09v3.12c3.07-.12,4.12,3.76,4.12,12.52v51.06c0,8.76-1.05,12.64-4.12,12.51v3.14h37.24c1.66,0,3.31-.13,4.52,2Z"/><path class="cls-1" d="M157.54,87.34c-3.52,5.02-7.01,10.45-10.39,16.33l5.54,10.63c2.25,4.26,4.43,8.39,4.43,14.4,0,4.25-1.42,6.5-3.83,7.13v3h15.1v-3.13c-3.09,.13-4.14-3.76-4.14-12.51v-44.91c-2.13,2.72-6.71,9.06-6.71,9.06Z"/><path class="cls-1" d="M2.26,157.36v5.22H106.17c-.33-1.73-.69-3.47-1.07-5.22H2.26Z"/><path class="cls-1" d="M76.24,108.51l.04-.65,.88-12.17,.05-.74,.07-.93,.9,.25,.72,.2c.07,.02,.55,.16,1.31,.44l4.4-21.81,5.15,26.77c1.85,1.23,3.81,2.69,5.82,4.46,6.94,6.1,15.49,16.87,19.31,34.48h2.07v-3.14c-3.97-.74-5.1-8.89-6.23-14.14-5.18-25.53-11.71-57.19-11.71-58.82,0-2.13,.6-2.87,1.71-3.13v-3.12h-21.92v3.13c1.05,.25,1.66,1.25,1.66,3.13,0,1.76-.91,5.25-1.28,6.77l-11.78,51.94c-1.43,5.75-3,12.77-7.06,14.26v3.14h16.52v-3.14c-2.02-.37-3.46-1.62-3.46-5.51,0-2.74,.9-7.5,1.43-10.12l2.26-10.73h-.94l.06-.81Z"/><path class="cls-1" d="M412.49,157.36H124.29c-.52,1.72-1.02,3.46-1.51,5.22H412.49v-5.22Z"/><path class="cls-1" d="M227.8,72.1v51.06c0,8.76-1.06,12.64-4.13,12.51v3.14h23.65v-3.14c-3.07,.13-4.12-3.75-4.12-12.51v-51.06c0-8.76,1.05-12.64,4.12-12.52v-3.12h-23.65v3.12c3.08-.12,4.13,3.76,4.13,12.52Z"/><path class="cls-1" d="M134.45,138.96v-3.13c-.96,.04-1.7-.31-2.29-1.06-.55,1.38-1.1,2.78-1.63,4.19h3.92Z"/><path class="cls-1" d="M10.58,137.24c1.99,0,4.91,1.06,6.89,1.74,5.22,1.56,9.29,2.61,14.6,2.61,7.82,0,16.9-2.96,23.47-10.26,6.88-7.48,11.05-17.9,11.05-31.81,0-18.77-7.83-26.07-17.31-30.93l-12.2-6.09c-3.86-2.08-10.01-4.52-10.01-13.21s5.94-13.73,10.64-13.73c8.34,0,16.69,11.12,19.61,23.81l2.19-.52-2.71-37.72c-1.46,2.94-4.38,4.17-6.46,4.17-1.57,0-3.76-.87-5.43-1.4-3.85-1.23-6.78-2.25-10.74-2.25-6.88,0-13.87,2.78-19.6,9.38-5.53,6.43-9.59,17.55-9.59,28.85,0,7.99,2.39,16,6.15,21.04,3.24,4.34,8.13,7.3,12.09,9.39l10.53,5.73c4.39,2.26,9.91,4.87,9.91,14.43,0,12.86-7.92,17.21-14.39,17.21-12.41,0-22.32-15.12-24.29-35.29l-2.3,.52,2.3,48.5c1.56-2.6,3.22-4.17,5.63-4.17Z"/><path class="cls-1" d="M384.41,140.81c6.83,0,14.72-3.75,19.83-11.64,5.03-7.75,7.43-19.64,7.43-30.9,0-12.14-2.4-24.66-7.89-33.05-5.1-7.88-12.62-10.76-19.37-10.76-15.54,0-27.78,16.02-27.78,42.92,0,12.01,2.47,24.16,7.88,32.41,5.19,7.9,13,11.03,19.9,11.03Zm-9.54-65.08c1.5-5.51,4.21-10.64,8.12-10.64,4.87,0,8.4,7.39,10.06,14.26,1.65,7.26,2.1,15.65,2.1,23.41,0,5.38-.3,11.51-1.5,16.52-1.36,6.01-4.28,10.88-8.33,10.88-4.8,0-8.2-7.12-9.85-14.01-1.71-7.13-2.31-15.65-2.31-23.4,0-5.51,.37-11.89,1.72-17.02Z"/><path class="cls-1" d="M168.39,58.06v-1.45h-15.1v3.12c2.65-.11,4.12,2.76,4.48,9.13,3.29-3.71,6.82-7.33,10.62-10.8Z"/><path class="cls-1" d="M130.39,71.5l10.51,20.17c3.26-5.27,6.93-10.59,11.03-15.8l-2.31-4.73c-.98-1.88-3.01-5.39-3.01-8.02,0-1.99,.9-2.87,1.95-3.38v-3.12h-28.68v3.12c3.08-.13,4.13,3.75,4.13,12.53v51.05c0,.72,0,1.4-.03,2.05,1.8-4.43,3.91-9.31,6.4-14.47v-39.39Z"/><path class="cls-1" d="M329.63,138.81h24.18v-3.14c-1.2-.74-2.49-1.49-3.08-3.5-.75-2.38-.67-8.26-.67-11.01v-14.52c0-6.64-.61-14.01,4.72-14.53v-3.12h-24.1v3.12c4.94,.38,4.58,7.01,4.58,13.16v11.51c0,3,.07,7-.83,9.62-.97,3.01-3.3,4.13-5.27,4.13-10.65,0-15.39-20.15-15.39-35.15s4.06-31.55,14.78-31.55c7.37,0,13.6,8.26,16.3,19.4l1.57-.37-2.32-29.29c-.99,2.25-2.48,3.5-4.14,3.5-1.13,0-2.25-.37-3.37-.75l-11.73-1.88c-15.02,0-27.63,12.64-27.63,39.67,0,13.4,3.83,27.15,10.3,35.41,6.38,8.14,14.34,9.27,22.07,9.27Z"/><path class="cls-1" d="M174.98,65.75c.19,1.73,.28,3.84,.28,6.36v51.06c0,8.76-1.05,12.64-4.13,12.51v3.14h27.79c6.9,0,14.19-1.62,19.53-9.51,4.95-7.38,7.2-18.27,7.2-29.03,0-13.15-3.45-26.03-9.68-34.17-6.23-8.26-13.21-9.51-20.95-9.64h-10.75c-3.01,2.8-6.12,5.89-9.28,9.29Zm15.68,51.04v-40.81c0-5.25,0-11.26,4.28-11.26,10.37,0,14.8,21.41,14.8,35.8s-4.13,30.03-13.75,30.03c-5.55,0-5.33-6.63-5.33-13.75Z"/><path class="cls-1" d="M78.54,95.79s30.95,8.69,36.25,50.4c2.67,21.02,14.15-87.79,102.57-114.73,0,0-83.99,34.78-104.33,170.35,0,0-7.08-93.86-35.37-93.86l.88-12.17Z"/><path class="cls-1" d="M240.39,196.5c1.41-.15,2.33-.4,2.75-.75,.41-.35,.61-1.25,.61-2.7v-17.09c0-1.37-.2-2.26-.6-2.67-.42-.42-1.33-.67-2.76-.78v-.72h20.4l.15,5.51h-.98c-.33-1.7-.82-2.79-1.46-3.29-.65-.5-2.1-.75-4.35-.75h-5.24c-.55,0-.9,.09-1.04,.27-.14,.19-.19,.52-.19,1.02v8.58h5.92c1.63,0,2.69-.24,3.14-.72,.45-.49,.8-1.48,1.08-2.96h.9v8.88h-.9c-.29-1.48-.65-2.48-1.11-2.96-.47-.48-1.49-.72-3.12-.72h-5.92v9.52c0,.77,.24,1.21,.73,1.35,.47,.14,1.91,.21,4.31,.21,2.62,0,4.54-.28,5.77-.85,1.24-.57,2.35-1.95,3.34-4.14h1.08l-1.75,6.48h-20.76v-.7Z"/><path class="cls-1" d="M263.85,196.5c1.43-.15,2.33-.4,2.76-.75,.42-.35,.63-1.25,.63-2.7v-17.09c0-1.37-.21-2.26-.63-2.67-.41-.42-1.33-.67-2.76-.78v-.72h10.84v.72c-1.4,.07-2.35,.31-2.83,.7-.47,.38-.72,1.21-.72,2.49v18.46c0,.43,.08,.76,.22,1.01,.14,.25,.45,.4,.95,.45,.28,.04,.59,.07,.91,.08,.32,.02,.91,.03,1.79,.03,3.42,0,5.73-.28,6.92-.84,1.21-.57,2.37-2.01,3.49-4.32h.98l-1.87,6.65h-20.68v-.7Z"/><path class="cls-1" d="M295.53,196.5c1.41-.15,2.33-.4,2.75-.75,.41-.35,.63-1.25,.63-2.7v-17.09c0-1.37-.2-2.26-.63-2.67-.41-.42-1.33-.67-2.75-.78v-.72h10.83v.72c-1.4,.07-2.35,.31-2.84,.7-.47,.38-.71,1.21-.71,2.49v18.46c0,.43,.07,.76,.21,1.01,.15,.25,.46,.4,.95,.45,.29,.04,.59,.07,.91,.08,.33,.02,.91,.03,1.8,.03,3.41,0,5.71-.28,6.92-.84,1.21-.57,2.37-2.01,3.51-4.32h.96l-1.88,6.65h-20.67v-.7Z"/><path class="cls-1" d="M319.19,196.5c1.57-.11,2.58-.34,3.03-.7,.46-.35,.71-1.27,.71-2.75v-17.09c0-1.41-.24-2.32-.71-2.73-.46-.4-1.46-.65-3.03-.71v-.72h11.38v.72c-1.57,.07-2.59,.31-3.05,.71-.46,.41-.69,1.32-.69,2.73v17.09c0,1.48,.23,2.4,.69,2.75,.46,.36,1.48,.59,3.05,.7v.7h-11.38v-.7Zm11.32-31.05c-.2,.23-.49,.47-.88,.73l-5.92,3.73h-1.54l5.65-5.68c.19-.2,.45-.4,.75-.61,.29-.22,.61-.33,.95-.33s.63,.12,.89,.35c.28,.24,.41,.53,.41,.91s-.09,.67-.3,.91Z"/><path class="cls-1" d="M331.98,196.5c1.42-.15,2.32-.4,2.76-.75,.42-.35,.63-1.25,.63-2.7v-17.09c0-1.39-.21-2.3-.63-2.7-.4-.4-1.33-.65-2.76-.75v-.72h10.37c3.49,0,6.44,.57,8.84,1.73,4.36,2.06,6.54,5.75,6.54,11.06,0,1.93-.39,3.74-1.17,5.47-.78,1.72-1.96,3.18-3.54,4.36-1.02,.76-2.04,1.32-3.12,1.72-1.95,.73-4.37,1.07-7.23,1.07h-10.69v-.7Zm7.75-1.02c.3,.2,.94,.3,1.9,.3,3.01,0,5.48-.59,7.41-1.78,2.96-1.83,4.47-4.95,4.47-9.37,0-3.94-1.22-6.91-3.68-8.9-2.1-1.7-4.88-2.55-8.34-2.55-.88,0-1.46,.09-1.76,.28-.31,.18-.46,.6-.46,1.23v19.56c0,.63,.15,1.03,.46,1.24Z"/><path class="cls-1" d="M359.55,196.5c1.4-.15,2.32-.4,2.74-.75,.43-.35,.63-1.25,.63-2.7v-17.09c0-1.37-.2-2.26-.6-2.67-.42-.42-1.35-.67-2.76-.78v-.72h20.42l.13,5.51h-.98c-.33-1.7-.82-2.79-1.47-3.29-.64-.5-2.09-.75-4.34-.75h-5.23c-.58,0-.91,.09-1.05,.27-.13,.19-.2,.52-.2,1.02v8.58h5.93c1.64,0,2.68-.24,3.12-.72,.47-.49,.81-1.48,1.1-2.96h.89v8.88h-.89c-.29-1.48-.66-2.48-1.11-2.96-.45-.48-1.49-.72-3.11-.72h-5.93v9.52c0,.77,.23,1.21,.71,1.35,.5,.14,1.94,.21,4.34,.21,2.6,0,4.51-.28,5.76-.85,1.25-.57,2.36-1.95,3.35-4.14h1.06l-1.73,6.48h-20.77v-.7Z"/><path class="cls-1" d="M383.02,196.5c1.46-.14,2.39-.43,2.76-.86,.35-.43,.53-1.45,.53-3.04v-16.65c0-1.36-.2-2.23-.6-2.66-.4-.41-1.31-.68-2.7-.79v-.72h10.64c2.2,0,4.05,.28,5.52,.84,2.82,1.06,4.22,3.02,4.22,5.88,0,1.9-.63,3.37-1.88,4.39-1.24,1.02-2.94,1.7-5.07,2.03l7.91,9.76c.5,.59,.98,1.03,1.47,1.3,.47,.27,1.11,.45,1.87,.52v.7h-6.18l-9.62-11.82-1.7,.08v7.58c0,1.42,.22,2.33,.66,2.69,.43,.4,1.37,.65,2.82,.77v.7h-10.68v-.7Zm13.13-13.32c2.04-.83,3.06-2.41,3.06-4.72s-.91-3.74-2.73-4.54c-.98-.45-2.27-.66-3.88-.66-1.09,0-1.76,.08-2,.24-.24,.15-.39,.52-.39,1.09v9.46c2.78-.09,4.75-.39,5.94-.87Z"/></svg>