<?xml version="1.0" encoding="UTF-8"?><svg id="Fondo" xmlns="http://www.w3.org/2000/svg" viewBox="0 0 98.92 98.01"><defs><style>.cls-1,.cls-2{fill:#fff;}.cls-3{fill:none;stroke:#fff;stroke-miterlimit:10;}.cls-2{fill-rule:evenodd;}</style></defs><circle class="cls-3" cx="49.46" cy="49" r="48.24" transform="translate(-9.94 12.67) rotate(-13.28)"/><path class="cls-1" d="M23.33,75.76l4.01-14.96c-2.27-4.1-3.47-8.69-3.47-13.35,0-15.23,12.39-27.63,27.63-27.63s27.63,12.39,27.63,27.63-12.39,27.63-27.63,27.63c-4.57,0-9.09-1.15-13.13-3.35l-15.04,4.03Zm15.79-9.64l.95,.56c3.48,2.07,7.43,3.17,11.44,3.17,12.35,0,22.4-10.05,22.4-22.4s-10.05-22.4-22.4-22.4-22.4,10.05-22.4,22.4c0,4.08,1.13,8.1,3.28,11.62l.58,.95-2.24,8.35,8.4-2.25Z"/><path class="cls-2" d="M61.78,51.3c-1.14-.68-2.62-1.44-3.96-.89-1.03,.42-1.68,2.03-2.35,2.85-.34,.42-.75,.49-1.27,.28-3.86-1.54-6.81-4.11-8.94-7.66-.36-.55-.3-.99,.14-1.5,.64-.76,1.45-1.62,1.62-2.64,.17-1.02-.3-2.21-.73-3.12-.54-1.16-1.14-2.82-2.3-3.47-1.07-.6-2.48-.27-3.43,.51-1.64,1.34-2.44,3.44-2.41,5.52,0,.59,.08,1.18,.22,1.75,.33,1.37,.97,2.65,1.68,3.87,.54,.92,1.12,1.81,1.75,2.67,2.06,2.8,4.63,5.24,7.6,7.06,1.49,.91,3.08,1.71,4.74,2.25,1.86,.61,3.51,1.25,5.52,.87,2.1-.4,4.17-1.7,5-3.72,.25-.6,.37-1.27,.23-1.9-.29-1.31-2.06-2.09-3.12-2.72Z"/></svg>