<?xml version="1.0" encoding="UTF-8"?><svg id="Fondo" xmlns="http://www.w3.org/2000/svg" viewBox="0 0 98.92 98.01"><defs><style>.cls-1{fill:#fff;}</style></defs><path class="cls-1" d="M51.5,25.05c-12.35,0-22.4,10.05-22.4,22.4,0,4.08,1.13,8.1,3.28,11.62l.58,.95-2.24,8.35,8.4-2.25,.95,.56c3.48,2.07,7.43,3.17,11.44,3.17,12.35,0,22.4-10.05,22.4-22.4s-10.05-22.4-22.4-22.4Zm13.16,30.86c-.83,2.02-2.9,3.32-5,3.72-2.01,.38-3.66-.26-5.52-.87-1.66-.55-3.26-1.34-4.74-2.25-2.97-1.82-5.54-4.26-7.6-7.06-.63-.86-1.22-1.75-1.75-2.67-.71-1.22-1.35-2.5-1.68-3.87-.14-.57-.21-1.16-.22-1.75-.02-2.08,.77-4.18,2.41-5.52,.95-.78,2.36-1.11,3.43-.51,1.16,.66,1.77,2.31,2.3,3.47,.42,.91,.9,2.1,.73,3.12-.17,1.02-.98,1.88-1.62,2.64-.43,.51-.5,.95-.14,1.5,2.13,3.55,5.08,6.12,8.94,7.66,.52,.21,.93,.15,1.27-.28,.67-.82,1.32-2.43,2.35-2.85,1.34-.55,2.82,.21,3.96,.89,1.06,.63,2.83,1.41,3.12,2.72,.14,.63,.01,1.3-.23,1.9Z"/><path class="cls-1" d="M49.46,.76C22.82,.76,1.22,22.36,1.22,49s21.6,48.24,48.24,48.24,48.24-21.6,48.24-48.24S76.1,.76,49.46,.76Zm2.04,74.32c-4.57,0-9.09-1.15-13.13-3.35l-15.04,4.03,4.01-14.96c-2.27-4.1-3.47-8.69-3.47-13.35,0-15.23,12.39-27.63,27.63-27.63s27.63,12.39,27.63,27.63-12.39,27.63-27.63,27.63Z"/></svg>