<?xml version="1.0" encoding="UTF-8"?><svg id="Fondo" xmlns="http://www.w3.org/2000/svg" viewBox="0 0 98.92 98.01"><defs><style>.cls-1{fill:#fff;}</style></defs><path class="cls-1" d="M49.46,.76C22.82,.76,1.22,22.36,1.22,49s21.6,48.24,48.24,48.24,48.24-21.6,48.24-48.24S76.1,.76,49.46,.76Zm25.6,54.94c0,6.38-5.17,11.55-11.55,11.55h-29.53c-6.38,0-11.55-5.17-11.55-11.55v-13.74c0-6.38,5.17-11.55,11.55-11.55h29.53c6.38,0,11.55,5.17,11.55,11.55v13.74Z"/><path class="cls-1" d="M57.15,48.5l-12.68-6.9c-.52-.3-2.3,.08-2.3,.68v13.45c0,.59,1.76,.97,2.28,.69l13.24-6.55c.54-.29-.02-1.06-.55-1.36Z"/></svg>